<?xml version="1.0" encoding="UTF-8" standalone="no"?>
<!-- Created with Inkscape (http://www.inkscape.org/) -->

<svg
   xmlns:osb="http://www.openswatchbook.org/uri/2009/osb"
   xmlns:dc="http://purl.org/dc/elements/1.1/"
   xmlns:cc="http://creativecommons.org/ns#"
   xmlns:rdf="http://www.w3.org/1999/02/22-rdf-syntax-ns#"
   xmlns:svg="http://www.w3.org/2000/svg"
   xmlns="http://www.w3.org/2000/svg"
   xmlns:xlink="http://www.w3.org/1999/xlink"
   xmlns:sodipodi="http://sodipodi.sourceforge.net/DTD/sodipodi-0.dtd"
   xmlns:inkscape="http://www.inkscape.org/namespaces/inkscape"
   inkscape:version="0.48.4 r9939"
   version="1.1"
   id="svg2"
   height="1052.3622047"
   width="744.09448819"
   sodipodi:docname="Set_Your_Proximity.svg"
   inkscape:export-filename="/home/lexora/Pizzazz/layouts/Set_Your_Proximity.png"
   inkscape:export-xdpi="90"
   inkscape:export-ydpi="90">
  <sodipodi:namedview
     id="base"
     pagecolor="#ffffff"
     bordercolor="#666666"
     borderopacity="1.0"
     inkscape:pageopacity="0.0"
     inkscape:pageshadow="2"
     inkscape:zoom="0.7"
     inkscape:cx="636.0003"
     inkscape:cy="448.57792"
     inkscape:document-units="px"
     inkscape:current-layer="layer1"
     showgrid="false"
     inkscape:window-width="1598"
     inkscape:window-height="850"
     inkscape:window-x="0"
     inkscape:window-y="0"
     inkscape:window-maximized="1" />
  <defs
     id="defs4">
    <pattern
       inkscape:collect="always"
       xlink:href="#Wavy"
       id="pattern6229"
       patternTransform="translate(119.31395,-182.1074)" />
    <pattern
       inkscape:stockid="Wavy"
       id="Wavy"
       height="5.1805778"
       width="30.066020"
       patternUnits="userSpaceOnUse"
       inkscape:collect="always">
      <path
         id="path5128"
         d="M 7.597,0.061 C 5.079,-0.187 2.656,0.302 -0.01,1.788 L -0.01,3.061 C 2.773,1.431 5.173,1.052 7.472,1.280 C 9.770,1.508 11.969,2.361 14.253,3.218 C 18.820,4.931 23.804,6.676 30.066,3.061 L 30.062,1.788 C 23.622,5.497 19.246,3.770 14.691,2.061 C 12.413,1.207 10.115,0.311 7.597,0.061 z "
         style="fill:black;stroke:none;" />
    </pattern>
    <inkscape:perspective
       sodipodi:type="inkscape:persp3d"
       inkscape:vp_x="0 : 526.18109 : 1"
       inkscape:vp_y="0 : 1000 : 0"
       inkscape:vp_z="744.09448 : 526.18109 : 1"
       inkscape:persp3d-origin="372.04724 : 350.78739 : 1"
       id="perspective5580" />
    <linearGradient
       osb:paint="gradient"
       id="linearGradient5309">
      <stop
         id="stop5311"
         offset="0"
         style="stop-color:#000000;stop-opacity:1;" />
      <stop
         id="stop5313"
         offset="1"
         style="stop-color:#000000;stop-opacity:0;" />
    </linearGradient>
    <filter
       color-interpolation-filters="sRGB"
       inkscape:menu-tooltip="Eroded metal texture with ridges, grooves, holes and bumps"
       inkscape:menu="Materials"
       inkscape:label="Eroded metal"
       id="filter2987">
      <feGaussianBlur
         stdDeviation="1"
         in="SourceGraphic"
         result="result0"
         id="feGaussianBlur2989" />
      <feTurbulence
         result="result1"
         numOctaves="4"
         seed="4"
         baseFrequency="0.057"
         type="turbulence"
         id="feTurbulence2991" />
      <feDisplacementMap
         result="result91"
         xChannelSelector="R"
         in2="result1"
         id="feDisplacementMap2993" />
      <feComposite
         in="result0"
         operator="out"
         result="result2"
         in2="result91"
         id="feComposite2995" />
      <feComposite
         result="result5"
         operator="arithmetic"
         in="SourceAlpha"
         k3="1.2"
         k1="0.1"
         in2="result2"
         id="feComposite2997" />
      <feBlend
         mode="multiply"
         result="fbSourceGraphic"
         in2="result5"
         id="feBlend2999" />
      <feGaussianBlur
         result="result0"
         in="fbSourceGraphic"
         stdDeviation="3"
         id="feGaussianBlur3001" />
      <feSpecularLighting
         specularExponent="15"
         specularConstant="0.4"
         surfaceScale="3"
         lighting-color="rgb(254,230,93)"
         result="result1"
         in="result0"
         id="feSpecularLighting3003">
        <fePointLight
           z="20000"
           y="-10000"
           x="-5000"
           id="fePointLight3005" />
      </feSpecularLighting>
      <feComposite
         operator="in"
         result="result2"
         in="result1"
         in2="fbSourceGraphic"
         id="feComposite3007" />
      <feComposite
         k3="3.5"
         k2="2.5"
         operator="arithmetic"
         result="result4"
         in="fbSourceGraphic"
         k1="-1"
         in2="result2"
         id="feComposite3009" />
      <feBlend
         mode="multiply"
         in2="result4"
         id="feBlend3011" />
    </filter>
    <filter
       color-interpolation-filters="sRGB"
       height="1"
       width="1"
       y="0"
       x="0"
       inkscape:menu-tooltip="Blend image or object with a flood color and set lightness and contrast"
       inkscape:menu="Color"
       inkscape:label="Colorize"
       id="filter5271"
       inkscape:collect="always">
      <feGaussianBlur
         result="fbSourceGraphic"
         id="feGaussianBlur5273"
         stdDeviation="0.33142858"
         inkscape:collect="always" />
      <feColorMatrix
         id="feColorMatrix5321"
         values="0 0 0 -1 0 0 0 0 -1 0 0 0 0 -1 0 0 0 0 1 0"
         in="fbSourceGraphic"
         result="fbSourceGraphicAlpha" />
      <feColorMatrix
         result="result2"
         type="saturate"
         in="fbSourceGraphic"
         values="1"
         id="feColorMatrix5323" />
      <feFlood
         result="result1"
         flood-opacity="1"
         flood-color="rgb(254,102,0)"
         id="feFlood5325" />
      <feBlend
         result="result3"
         in="result1"
         mode="multiply"
         in2="result2"
         id="feBlend5327" />
      <feComposite
         result="result4"
         k2="1"
         operator="in"
         in2="fbSourceGraphic"
         id="feComposite5329" />
    </filter>
    <pattern
       inkscape:collect="always"
       patternUnits="userSpaceOnUse"
       width="2"
       height="2"
       patternTransform="translate(0,0) scale(10,10)"
       id="Checkerboard-369"
       inkscape:stockid="Checkerboard">
      <rect
         style="fill:#000000;stroke:none"
         x="0"
         y="0"
         width="1"
         height="1"
         id="rect5471" />
      <rect
         style="fill:#000000;stroke:none"
         x="1"
         y="1"
         width="1"
         height="1"
         id="rect5473" />
    </pattern>
    <pattern
       inkscape:collect="always"
       patternUnits="userSpaceOnUse"
       width="2"
       height="2"
       patternTransform="translate(0,0) scale(10,10)"
       id="Checkerboard-450"
       inkscape:stockid="Checkerboard">
      <rect
         style="fill:#000000;stroke:none"
         x="0"
         y="0"
         width="1"
         height="1"
         id="rect5476" />
      <rect
         style="fill:#000000;stroke:none"
         x="1"
         y="1"
         width="1"
         height="1"
         id="rect5478" />
    </pattern>
    <pattern
       patternUnits="userSpaceOnUse"
       width="409.5625"
       height="255.28125"
       patternTransform="translate(96.65625,323.28125)"
       id="pattern5575">
      <path
         sodipodi:type="arc"
         style="opacity:0.97000002;fill:url(#Checkerboard-369);fill-opacity:1;fill-rule:nonzero;stroke:url(#Checkerboard-450);stroke-width:1px;stroke-linecap:butt;stroke-linejoin:miter;stroke-opacity:0.52631579;filter:url(#filter5271)"
         id="path2985"
         sodipodi:cx="301.42856"
         sodipodi:cy="450.93362"
         sodipodi:rx="204.28572"
         sodipodi:ry="127.14286"
         d="m 505.71428,450.93362 a 204.28572,127.14286 0 1 1 -408.571442,0 204.28572,127.14286 0 1 1 408.571442,0 z"
         transform="translate(-96.65625,-323.28125)" />
    </pattern>
    <linearGradient
       inkscape:collect="always"
       xlink:href="#linearGradient5606-5"
       id="linearGradient5616-8"
       gradientUnits="userSpaceOnUse"
       x1="62.67857"
       y1="200.39789"
       x2="180.53572"
       y2="212.54076"
       gradientTransform="matrix(-0.41974699,0,0,0.44540508,226.11953,92.372749)" />
    <linearGradient
       inkscape:collect="always"
       id="linearGradient5606-5">
      <stop
         style="stop-color:#0094ea;stop-opacity:1;"
         offset="0"
         id="stop5608-9" />
      <stop
         style="stop-color:#00e300;stop-opacity:1"
         offset="1"
         id="stop5610-2" />
    </linearGradient>
  </defs>
  <metadata
     id="metadata7">
    <rdf:RDF>
      <cc:Work
         rdf:about="">
        <dc:format>image/svg+xml</dc:format>
        <dc:type
           rdf:resource="http://purl.org/dc/dcmitype/StillImage" />
        <dc:title></dc:title>
      </cc:Work>
    </rdf:RDF>
  </metadata>
  <g
     style="display:inline"
     id="layer1"
     inkscape:groupmode="layer"
     inkscape:label="Layer 1">
    <path
       style="fill:url(#pattern6229);fill-opacity:1;fill-rule:nonzero;stroke:#000000;stroke-width:1.00999999;stroke-linecap:round;stroke-linejoin:bevel;stroke-miterlimit:4;stroke-opacity:0.52631579;stroke-dasharray:none"
       d="m 479.89359,541.0061 c -64.07083,-14.5154 -92.32264,-88.23236 -54.21169,-141.4536 10.49081,-14.65022 26.69986,-26.5472 44.41638,-32.60036 9.09288,-3.10674 17.82753,-4.41423 29.36945,-4.3963 49.1394,0.0763 89.32348,40.57809 89.32348,90.02966 0,40.67374 -27.35116,76.25314 -67.17515,87.38397 -8.443,2.35982 -33.1701,2.97419 -41.72247,1.03663 l 0,0 z"
       id="path6214"
       inkscape:connector-curvature="0" />
    <path
       style="fill:#008000;fill-opacity:0.94230772;fill-rule:nonzero;stroke:#000000;stroke-width:0.36071429;stroke-linecap:round;stroke-linejoin:bevel;stroke-miterlimit:4;stroke-opacity:0.52631579;stroke-dasharray:none"
       d=""
       id="path6231"
       inkscape:connector-curvature="0" />
    <path
       style="fill:#008000;fill-opacity:0.94230772;fill-rule:nonzero;stroke:#000000;stroke-width:0.36071429;stroke-linecap:round;stroke-linejoin:bevel;stroke-miterlimit:4;stroke-opacity:0.52631579;stroke-dasharray:none"
       d="m 494.02463,540.80183 c -4.93452,-1.79128 -7.01913,-2.13452 -9.72758,-1.60166 -1.22517,0.24104 -2.68944,0.67709 -3.25394,0.969 -0.81155,0.41967 -0.99375,0.4311 -0.87054,0.0546 0.0857,-0.26185 1.02765,-0.84356 2.09322,-1.29267 2.93784,-1.23822 6.43041,-0.94444 11.75884,0.98912 2.25893,0.81971 4.75,1.62094 5.53572,1.7805 l 1.42857,0.29012 -1.78572,0.0213 c -1.18517,0.0141 -2.92675,-0.39291 -5.17857,-1.21035 z"
       id="path6233"
       inkscape:connector-curvature="0" />
    <path
       style="fill:#008000;fill-opacity:0.94230772;fill-rule:nonzero;stroke:#000000;stroke-width:0.36071429;stroke-linecap:round;stroke-linejoin:bevel;stroke-miterlimit:4;stroke-opacity:0.52631579;stroke-dasharray:none"
       d="m 494.56035,539.65075 c -4.25209,-1.51559 -4.92842,-1.6563 -8.03572,-1.67181 -2.99276,-0.0149 -3.65111,0.10239 -5.58288,0.99507 l -2.19002,1.01201 -3.50455,-0.93277 c -1.9275,-0.51303 -3.55844,-0.98667 -3.62431,-1.05254 -0.0659,-0.0659 0.99129,-0.19927 2.34926,-0.29643 1.98236,-0.14184 3.19881,-0.51849 6.17148,-1.91092 5.14213,-2.40863 6.79175,-2.40396 13.70245,0.0388 4.77323,1.68721 5.17008,1.76749 8.75,1.77003 l 3.75,0.003 3.75,-1.77669 c 3.50876,-1.66239 3.92232,-1.77441 6.42857,-1.74132 2.20075,0.029 3.43982,0.30933 6.946,1.57119 l 4.26744,1.53583 -2.48172,0.84224 c -2.44285,0.82905 -2.51995,0.83295 -4.92249,0.24894 -3.86326,-0.93907 -6.56742,-0.58695 -10.84369,1.412 -3.45637,1.61568 -3.63214,1.65719 -6.91673,1.6332 -3.06996,-0.0224 -3.7839,-0.17206 -8.01309,-1.67949 z"
       id="path6235"
       inkscape:connector-curvature="0" />
    <path
       style="fill:#008000;fill-opacity:0.94230772;fill-rule:nonzero;stroke:#000000;stroke-width:0.36071429;stroke-linecap:round;stroke-linejoin:bevel;stroke-miterlimit:4;stroke-opacity:0.52631579;stroke-dasharray:none"
       d="m 494.73892,535.69136 c -2.84822,-0.97194 -5.9228,-1.8785 -6.83241,-2.01458 -1.80779,-0.27043 -5.22401,0.2973 -6.86796,1.14137 -0.8127,0.41727 -0.98991,0.4272 -0.86598,0.0485 0.0857,-0.26186 1.02765,-0.84356 2.09322,-1.29267 3.03686,-1.27996 6.39738,-0.9535 12.29456,1.19437 4.21736,1.53604 4.93742,1.69253 7.85714,1.70755 2.50079,0.0129 3.65031,-0.15726 5.17857,-0.76638 2.26636,-0.9033 2.14286,-0.8762 2.14286,-0.4701 0,0.78341 -3.81345,1.95571 -6.78572,2.08601 -2.87178,0.1259 -3.31536,0.0376 -8.21428,-1.63409 z"
       id="path6237"
       inkscape:connector-curvature="0" />
    <path
       style="fill:#008000;fill-opacity:0.94230772;fill-rule:nonzero;stroke:#000000;stroke-width:0.36071429;stroke-linecap:round;stroke-linejoin:bevel;stroke-miterlimit:4;stroke-opacity:0.52631579;stroke-dasharray:none"
       d="m 470.15947,531.12151 c -0.4562,-0.0991 -2.94727,-0.91117 -5.53572,-1.8045 -5.41217,-1.86787 -8.92879,-2.29496 -11.73058,-1.42467 -1.59685,0.49601 -1.72866,0.48119 -3.125,-0.35149 -0.8018,-0.47814 -1.45782,-0.99866 -1.45782,-1.15672 0,-0.15807 1.24553,-0.81957 2.76785,-1.47002 4.20093,-1.79495 6.37294,-1.69953 12.76786,0.56091 4.77323,1.68721 5.17008,1.76749 8.75,1.77003 l 3.75,0.003 3.75,-1.77288 c 5.18891,-2.45315 6.80943,-2.45313 13.75,1.9e-4 4.77323,1.68721 5.17008,1.76749 8.75,1.77003 l 3.75,0.003 3.75,-1.77288 c 5.18891,-2.45315 6.80943,-2.45313 13.75,1.9e-4 4.77323,1.68721 5.17008,1.76749 8.75,1.77003 3.71814,0.003 3.78034,-0.0115 7.32143,-1.66373 1.96428,-0.91651 4.23756,-1.77153 5.05172,-1.90004 1.52885,-0.24133 5.39931,0.30317 5.93043,0.83429 0.16551,0.16552 -0.55026,0.87233 -1.59061,1.57069 -1.5139,1.01626 -2.33575,1.30553 -4.11651,1.44894 -1.66872,0.13439 -3.14194,0.61066 -5.89285,1.90508 -3.51894,1.65581 -3.79118,1.72469 -6.70361,1.6962 -2.69003,-0.0263 -3.58475,-0.22723 -7.85714,-1.76429 -4.45833,-1.60395 -5.07695,-1.73582 -8.21429,-1.75096 -3.34481,-0.0161 -3.44596,0.009 -7.14286,1.76428 -3.61844,1.7182 -3.8565,1.77963 -6.78571,1.75097 -2.69003,-0.0263 -3.58475,-0.22723 -7.85714,-1.76429 -4.45833,-1.60395 -5.07695,-1.73582 -8.21429,-1.75096 -3.32472,-0.016 -3.46583,0.0181 -7.0265,1.69856 -2.99073,1.4115 -4.06498,1.73856 -6.07143,1.84846 -1.34078,0.0734 -2.81104,0.0524 -3.26723,-0.0467 l 0,0 z"
       id="path6239"
       inkscape:connector-curvature="0" />
    <path
       style="fill:#008000;fill-opacity:0.94230772;fill-rule:nonzero;stroke:#000000;stroke-width:0.36071429;stroke-linecap:round;stroke-linejoin:bevel;stroke-miterlimit:4;stroke-opacity:0.52631579;stroke-dasharray:none"
       d="m 438.38609,518.67329 c -1.43156,-1.32572 -2.54972,-2.46351 -2.4848,-2.52843 0.0649,-0.0649 1.07548,0.1333 2.24569,0.44049 1.42272,0.37347 3.07427,0.50654 4.98479,0.40164 2.4495,-0.1345 3.41766,-0.40441 6.78572,-1.89172 5.4554,-2.40907 7.05656,-2.40648 13.92857,0.0226 4.77323,1.68722 5.17008,1.7675 8.75,1.77003 l 3.75,0.003 3.75,-1.77288 c 5.18891,-2.45315 6.80943,-2.45313 13.75,1.8e-4 4.77323,1.68722 5.17008,1.7675 8.75,1.77003 l 3.75,0.003 3.75,-1.77288 c 5.18891,-2.45315 6.80943,-2.45313 13.75,1.8e-4 4.77323,1.68722 5.17008,1.7675 8.75,1.77003 l 3.75,0.003 3.75,-1.77288 c 5.14434,-2.43208 6.73339,-2.43611 13.92857,-0.0353 2.84822,0.95035 5.41044,1.793 5.69383,1.87255 0.3637,0.10209 0.0974,0.5625 -0.90534,1.56523 l -1.42059,1.4206 -3.73752,-1.33225 c -3.29457,-1.17435 -4.13963,-1.33393 -7.13038,-1.34651 -3.343,-0.0141 -3.44796,0.0119 -7.14286,1.76639 -3.61844,1.71819 -3.8565,1.77962 -6.78571,1.75096 -2.69003,-0.0263 -3.58475,-0.22722 -7.85714,-1.76428 -4.45833,-1.60395 -5.07695,-1.73582 -8.21429,-1.75096 -3.34481,-0.0162 -3.44596,0.009 -7.14286,1.76428 -3.61844,1.71819 -3.8565,1.77962 -6.78571,1.75096 -2.69003,-0.0263 -3.58475,-0.22722 -7.85714,-1.76428 -4.45833,-1.60395 -5.07695,-1.73582 -8.21429,-1.75096 -3.34481,-0.0162 -3.44596,0.009 -7.14286,1.76428 -3.61844,1.71819 -3.8565,1.77962 -6.78571,1.75096 -2.69002,-0.0263 -3.58475,-0.22722 -7.85714,-1.76428 -4.45924,-1.60428 -5.07631,-1.73578 -8.21429,-1.75047 -3.29239,-0.0154 -3.50694,0.0348 -7.24592,1.69478 -2.6927,1.19548 -4.52112,1.77294 -6.07143,1.91749 l -2.21836,0.20684 -2.60283,-2.4104 z"
       id="path6241"
       inkscape:connector-curvature="0" />
    <path
       style="fill:#008000;fill-opacity:0.94230772;fill-rule:nonzero;stroke:#000000;stroke-width:0.18035714;stroke-linecap:round;stroke-linejoin:bevel;stroke-miterlimit:4;stroke-opacity:0.52631579;stroke-dasharray:none"
       d="m 440.03253,510.47291 c -0.74974,-0.13571 -3.20063,-0.8946 -5.44643,-1.68644 -2.2458,-0.79183 -4.78183,-1.57761 -5.63562,-1.74617 l -1.55235,-0.30647 -1.33845,-1.78572 -1.33846,-1.78571 0.47348,-0.12866 c 0.6537,-0.17762 3.45859,0.14062 4.8617,0.55162 0.6384,0.18699 2.28572,0.74575 3.66072,1.24167 4.93225,1.77894 5.36703,1.87489 8.57143,1.89176 3.39882,0.0179 4.27164,-0.19688 7.61861,-1.87467 2.79743,-1.4023 4.38767,-1.83938 6.57782,-1.80789 2.02165,0.0291 3.48388,0.37813 7.21196,1.72162 5.14613,1.85452 5.54619,1.94397 8.77018,1.96094 3.43175,0.0181 4.42574,-0.22884 7.51868,-1.86759 2.60322,-1.37928 4.27773,-1.84691 6.49918,-1.81497 2.02165,0.0291 3.48388,0.37813 7.21196,1.72162 5.14613,1.85452 5.54619,1.94397 8.77018,1.96094 3.43175,0.0181 4.42574,-0.22884 7.51868,-1.86759 2.60322,-1.37928 4.27773,-1.84691 6.49918,-1.81497 2.02165,0.0291 3.48388,0.37813 7.21196,1.72162 5.14613,1.85452 5.54619,1.94397 8.77018,1.96094 3.39882,0.0179 4.27164,-0.19688 7.61861,-1.87467 2.79743,-1.4023 4.38768,-1.83938 6.57782,-1.80789 2.02166,0.0291 3.48389,0.37813 7.21196,1.72162 5.14613,1.85452 5.54619,1.94397 8.77018,1.96094 3.36515,0.0177 4.44668,-0.23795 7.20843,-1.70398 0.91999,-0.48836 1.7035,-0.85714 1.74114,-0.81951 0.0771,0.0771 -1.74749,2.55674 -3.24581,4.41119 -1.14617,1.41859 -1.69604,1.67599 -4.27519,2.00127 -2.35614,0.29716 -4.11512,-0.0528 -9.10341,-1.81126 -4.68782,-1.65251 -6.04724,-1.97339 -8.3605,-1.97339 -2.18347,0 -3.75927,0.41397 -6.46466,1.6983 -2.84845,1.35224 -4.31826,1.8429 -6.25,2.08643 -2.35621,0.29705 -4.11533,-0.053 -9.10341,-1.81134 -4.68782,-1.65251 -6.04725,-1.97339 -8.3605,-1.97339 -2.22502,0 -3.89673,0.4458 -6.4105,1.70951 -2.59137,1.30272 -4.12843,1.82345 -6.12559,2.07522 -2.35621,0.29705 -4.11533,-0.053 -9.10341,-1.81134 -4.68782,-1.65251 -6.04725,-1.97339 -8.3605,-1.97339 -2.22502,0 -3.89673,0.4458 -6.4105,1.70951 -2.59137,1.30272 -4.12843,1.82345 -6.12559,2.07522 -2.35621,0.29705 -4.11533,-0.053 -9.10341,-1.81134 -4.68782,-1.65251 -6.04725,-1.97339 -8.3605,-1.97339 -2.20319,0 -3.76088,0.41362 -6.57797,1.74668 -4.37714,2.07128 -6.55771,2.49382 -9.82128,1.90312 l 0,0 z"
       id="path6243"
       inkscape:connector-curvature="0" />
    <path
       style="fill:#008000;fill-opacity:0.94230772;fill-rule:nonzero;stroke:#000000;stroke-width:0.18035714;stroke-linecap:round;stroke-linejoin:bevel;stroke-miterlimit:4;stroke-opacity:0.52631579;stroke-dasharray:none"
       d="m 440.03253,500.11576 c -0.74974,-0.1357 -3.19427,-0.89222 -5.4323,-1.68115 -2.23802,-0.78893 -4.71002,-1.56428 -5.49333,-1.723 -2.01527,-0.40834 -4.95319,-0.27127 -6.65487,0.3105 l -1.26509,0.4325 -0.76363,-1.40905 c -0.84586,-1.56082 -0.88171,-1.4217 0.56,-2.17369 1.50468,-0.78483 3.44573,-1.21977 5.32309,-1.19278 2.02166,0.0291 3.48389,0.37813 7.21197,1.72162 5.14613,1.85452 5.54618,1.94397 8.77018,1.96094 3.39882,0.0179 4.27164,-0.19688 7.61861,-1.87467 2.79743,-1.40231 4.38767,-1.83938 6.57782,-1.80789 2.02165,0.0291 3.48388,0.37813 7.21196,1.72162 5.14613,1.85452 5.54619,1.94397 8.77018,1.96094 3.43175,0.0181 4.42574,-0.22884 7.51868,-1.86759 2.60322,-1.37929 4.27773,-1.84691 6.49918,-1.81497 2.02165,0.0291 3.48388,0.37813 7.21196,1.72162 5.14613,1.85452 5.54619,1.94397 8.77018,1.96094 3.43175,0.0181 4.42574,-0.22884 7.51868,-1.86759 2.60322,-1.37929 4.27773,-1.84691 6.49918,-1.81497 2.02165,0.0291 3.48388,0.37813 7.21196,1.72162 5.14613,1.85452 5.54619,1.94397 8.77018,1.96094 3.39882,0.0179 4.27164,-0.19688 7.61861,-1.87467 2.79743,-1.40231 4.38768,-1.83938 6.57782,-1.80789 2.02166,0.0291 3.48389,0.37813 7.21196,1.72162 5.14613,1.85452 5.54619,1.94397 8.77018,1.96094 3.43175,0.0181 4.42574,-0.22884 7.51868,-1.86759 2.82448,-1.49651 4.57011,-1.92194 7.45268,-1.81631 l 1.04279,0.0382 -0.9774,1.83036 -0.97739,1.83035 -1.24327,0.11327 c -1.7594,0.16029 -3.0618,0.57995 -5.31609,1.71297 -2.53792,1.27557 -4.08491,1.79735 -6.07143,2.04778 -2.35621,0.29704 -4.11533,-0.053 -9.10341,-1.81134 -4.68782,-1.65251 -6.04724,-1.97339 -8.3605,-1.97339 -2.18347,0 -3.75927,0.41397 -6.46466,1.6983 -2.84845,1.35223 -4.31826,1.8429 -6.25,2.08643 -2.35621,0.29704 -4.11533,-0.053 -9.10341,-1.81134 -4.68782,-1.65251 -6.04725,-1.97339 -8.3605,-1.97339 -2.22502,0 -3.89673,0.4458 -6.4105,1.70951 -2.59137,1.30272 -4.12843,1.82344 -6.12559,2.07522 -2.35621,0.29704 -4.11533,-0.053 -9.10341,-1.81134 -4.68782,-1.65251 -6.04725,-1.97339 -8.3605,-1.97339 -2.22502,0 -3.89673,0.4458 -6.4105,1.70951 -2.59137,1.30272 -4.12843,1.82344 -6.12559,2.07522 -2.35621,0.29704 -4.11533,-0.053 -9.10341,-1.81134 -4.68782,-1.65251 -6.04725,-1.97339 -8.3605,-1.97339 -2.20319,0 -3.76088,0.41362 -6.57797,1.74668 -4.37714,2.07127 -6.55771,2.49381 -9.82128,1.90311 l 0,0 z"
       id="path6245"
       inkscape:connector-curvature="0" />
    <path
       style="fill:#008000;fill-opacity:0.94230772;fill-rule:nonzero;stroke:#000000;stroke-width:0.18035714;stroke-linecap:round;stroke-linejoin:bevel;stroke-miterlimit:4;stroke-opacity:0.52631579;stroke-dasharray:none"
       d="m 440.03253,489.75862 c -0.74974,-0.1357 -3.18913,-0.8904 -5.42086,-1.67712 -4.68576,-1.65179 -6.04538,-1.97267 -8.35846,-1.97267 -2.28026,0 -3.82911,0.43061 -6.78612,1.88668 -1.34697,0.66326 -2.47472,1.17304 -2.50611,1.13284 -0.13771,-0.17633 -1.38916,-3.23525 -1.33727,-3.26869 0.0317,-0.0204 0.53984,-0.18111 1.12912,-0.35704 0.58929,-0.17593 1.96377,-0.79158 3.0544,-1.36811 2.60618,-1.37769 4.27989,-1.84447 6.49917,-1.81256 2.02166,0.0291 3.48389,0.37813 7.21197,1.72162 5.14613,1.85451 5.54618,1.94396 8.77018,1.96093 3.39882,0.0179 4.27164,-0.19688 7.61861,-1.87466 2.79743,-1.40231 4.38767,-1.83938 6.57782,-1.80789 2.02165,0.0291 3.48388,0.37813 7.21196,1.72162 5.14613,1.85451 5.54619,1.94396 8.77018,1.96093 3.43175,0.0181 4.42574,-0.22883 7.51868,-1.86759 2.60322,-1.37928 4.27773,-1.8469 6.49918,-1.81496 2.02165,0.0291 3.48388,0.37813 7.21196,1.72162 5.14613,1.85451 5.54619,1.94396 8.77018,1.96093 3.43175,0.0181 4.42574,-0.22883 7.51868,-1.86759 2.60322,-1.37928 4.27773,-1.8469 6.49918,-1.81496 2.02165,0.0291 3.48388,0.37813 7.21196,1.72162 5.14613,1.85451 5.54619,1.94396 8.77018,1.96093 3.39882,0.0179 4.27164,-0.19688 7.61861,-1.87466 2.79743,-1.40231 4.38768,-1.83938 6.57782,-1.80789 2.02166,0.0291 3.48389,0.37813 7.21196,1.72162 5.14613,1.85451 5.54619,1.94396 8.77018,1.96093 3.43175,0.0181 4.42574,-0.22883 7.51868,-1.86759 3.52594,-1.86817 6.24508,-2.26748 9.64333,-1.41614 2.25257,0.56432 2.79386,0.8216 2.65421,1.2616 -0.32006,1.00843 -1.12939,2.74788 -1.26671,2.7225 -0.0862,-0.0159 -0.77603,-0.15655 -1.53305,-0.3125 -1.90419,-0.39227 -4.40466,-0.36603 -6.08552,0.0639 -0.74708,0.19107 -2.26663,0.80402 -3.37678,1.36211 -2.59137,1.30272 -4.12843,1.82344 -6.12559,2.07522 -2.35621,0.29704 -4.11533,-0.053 -9.10341,-1.81134 -4.68782,-1.65252 -6.04724,-1.97339 -8.3605,-1.97339 -2.18347,0 -3.75927,0.41397 -6.46466,1.69829 -2.84845,1.35224 -4.31826,1.84291 -6.25,2.08644 -2.35621,0.29704 -4.11533,-0.053 -9.10341,-1.81134 -4.68782,-1.65252 -6.04725,-1.97339 -8.3605,-1.97339 -2.22502,0 -3.89673,0.4458 -6.4105,1.70951 -2.59137,1.30272 -4.12843,1.82344 -6.12559,2.07522 -2.35621,0.29704 -4.11533,-0.053 -9.10341,-1.81134 -4.68782,-1.65252 -6.04725,-1.97339 -8.3605,-1.97339 -2.22502,0 -3.89673,0.4458 -6.4105,1.70951 -2.59137,1.30272 -4.12843,1.82344 -6.12559,2.07522 -2.35621,0.29704 -4.11533,-0.053 -9.10341,-1.81134 -4.68782,-1.65252 -6.04725,-1.97339 -8.3605,-1.97339 -2.20319,0 -3.76088,0.41362 -6.57797,1.74667 -4.37714,2.07128 -6.55771,2.49382 -9.82128,1.90312 z"
       id="path6247"
       inkscape:connector-curvature="0" />
    <path
       style="fill:#008000;fill-opacity:0.94230772;fill-rule:nonzero;stroke:#000000;stroke-width:0.18035714;stroke-linecap:round;stroke-linejoin:bevel;stroke-miterlimit:4;stroke-opacity:0.52631579;stroke-dasharray:none"
       d="m 413.07826,478.89435 c -0.25793,-0.98501 -0.73149,-2.64996 -0.82269,-2.89245 -0.0484,-0.12869 0.46695,-0.23232 1.49745,-0.30113 2.05155,-0.13698 3.62466,-0.63644 6.05421,-1.92222 2.60471,-1.37847 4.27882,-1.84567 6.49917,-1.81375 2.02166,0.0291 3.48389,0.37813 7.21197,1.72162 5.14613,1.85452 5.54618,1.94397 8.77018,1.96094 3.39882,0.0179 4.27164,-0.19688 7.61861,-1.87466 2.79743,-1.40231 4.38767,-1.83939 6.57782,-1.8079 2.02165,0.0291 3.48388,0.37813 7.21196,1.72162 5.14613,1.85452 5.54619,1.94397 8.77018,1.96094 3.43175,0.0181 4.42574,-0.22884 7.51868,-1.86759 2.60322,-1.37928 4.27773,-1.84691 6.49918,-1.81497 2.02165,0.0291 3.48388,0.37813 7.21196,1.72162 5.14613,1.85452 5.54619,1.94397 8.77018,1.96094 3.43175,0.0181 4.42574,-0.22884 7.51868,-1.86759 2.60322,-1.37928 4.27773,-1.84691 6.49918,-1.81497 2.02165,0.0291 3.48388,0.37813 7.21196,1.72162 5.14613,1.85452 5.54619,1.94397 8.77018,1.96094 3.39882,0.0179 4.27164,-0.19688 7.61861,-1.87466 2.79743,-1.40231 4.38768,-1.83939 6.57782,-1.8079 2.02166,0.0291 3.48389,0.37813 7.21196,1.72162 5.14613,1.85452 5.54619,1.94397 8.77018,1.96094 3.43175,0.0181 4.42574,-0.22884 7.51868,-1.86759 4.47365,-2.3703 7.14911,-2.43502 13.09527,-0.31676 1.18465,0.42202 2.15499,0.84846 2.15632,0.94764 0.005,0.40134 -0.78,3.12675 -0.90101,3.12675 -0.0716,0 -0.89157,-0.2756 -1.82211,-0.61244 -2.28559,-0.82735 -4.07895,-1.17328 -6.08249,-1.17328 -2.22502,0 -3.89673,0.4458 -6.4105,1.70951 -2.59137,1.30272 -4.12843,1.82345 -6.12559,2.07523 -2.35621,0.29704 -4.11533,-0.053 -9.10341,-1.81134 -4.68782,-1.65252 -6.04724,-1.9734 -8.3605,-1.9734 -2.18347,0 -3.75927,0.41397 -6.46466,1.6983 -2.84845,1.35224 -4.31826,1.8429 -6.25,2.08644 -2.35621,0.29704 -4.11533,-0.053 -9.10341,-1.81134 -4.68782,-1.65252 -6.04725,-1.9734 -8.3605,-1.9734 -2.22502,0 -3.89673,0.4458 -6.4105,1.70951 -2.59137,1.30272 -4.12843,1.82345 -6.12559,2.07523 -2.35621,0.29704 -4.11533,-0.053 -9.10341,-1.81134 -4.68782,-1.65252 -6.04725,-1.9734 -8.3605,-1.9734 -2.22502,0 -3.89673,0.4458 -6.4105,1.70951 -2.59137,1.30272 -4.12843,1.82345 -6.12559,2.07523 -2.35621,0.29704 -4.11533,-0.053 -9.10341,-1.81134 -4.68782,-1.65252 -6.04725,-1.9734 -8.3605,-1.9734 -2.18347,0 -3.75928,0.41397 -6.46466,1.6983 -2.84845,1.35224 -4.31826,1.8429 -6.25,2.08644 -2.35621,0.29704 -4.11533,-0.053 -9.10341,-1.81134 -4.68782,-1.65252 -6.04725,-1.9734 -8.3605,-1.9734 -2.23892,0 -3.8974,0.44628 -6.50184,1.74955 -2.32421,1.16304 -3.89809,1.73105 -5.45428,1.96841 l -1.02716,0.15667 -0.19167,-0.73196 z"
       id="path6249"
       inkscape:connector-curvature="0" />
    <path
       style="fill:#008000;fill-opacity:0.94230772;fill-rule:nonzero;stroke:#000000;stroke-width:0.18035714;stroke-linecap:round;stroke-linejoin:bevel;stroke-miterlimit:4;stroke-opacity:0.52631579;stroke-dasharray:none"
       d="m 411.01977,469.20048 c -0.3264,-0.0643 -0.4146,-0.30695 -0.66964,-1.84261 -0.16155,-0.97274 -0.29359,-1.83252 -0.29342,-1.91062 1.6e-4,-0.0781 1.14525,-0.14234 2.54464,-0.14277 3.08426,-9.3e-4 4.21147,-0.29531 7.20588,-1.88185 2.60322,-1.37929 4.27773,-1.84691 6.49917,-1.81497 2.02166,0.0291 3.48389,0.37813 7.21197,1.72162 5.14613,1.85452 5.54618,1.94397 8.77018,1.96094 3.39882,0.0179 4.27164,-0.19688 7.61861,-1.87467 2.79743,-1.40231 4.38767,-1.83938 6.57782,-1.80789 2.02165,0.0291 3.48388,0.37813 7.21196,1.72162 5.14613,1.85452 5.54619,1.94397 8.77018,1.96094 3.43175,0.0181 4.42574,-0.22884 7.51868,-1.86759 2.60322,-1.37929 4.27773,-1.84691 6.49918,-1.81497 2.02165,0.0291 3.48388,0.37813 7.21196,1.72162 5.14613,1.85452 5.54619,1.94397 8.77018,1.96094 3.43175,0.0181 4.42574,-0.22884 7.51868,-1.86759 2.60322,-1.37929 4.27773,-1.84691 6.49918,-1.81497 2.02165,0.0291 3.48388,0.37813 7.21196,1.72162 5.14613,1.85452 5.54619,1.94397 8.77018,1.96094 3.39882,0.0179 4.27164,-0.19688 7.61861,-1.87467 2.79743,-1.40231 4.38768,-1.83938 6.57782,-1.80789 2.02166,0.0291 3.48389,0.37813 7.21196,1.72162 5.14613,1.85452 5.54619,1.94397 8.77018,1.96094 3.43175,0.0181 4.42574,-0.22884 7.51868,-1.86759 2.60323,-1.37929 4.27773,-1.84691 6.49918,-1.81497 2.01366,0.029 3.46418,0.37379 7.21196,1.71452 1.48432,0.53099 2.87955,1.01902 3.10054,1.08451 0.22098,0.0655 0.40148,0.17391 0.4011,0.24096 -10e-4,0.26881 -0.51797,3.28851 -0.56926,3.32839 -0.0303,0.0235 -1.35979,-0.42366 -2.95448,-0.99378 -3.49873,-1.25084 -5.03555,-1.58772 -7.24306,-1.58772 -2.22502,0 -3.89673,0.4458 -6.4105,1.70951 -2.59137,1.30272 -4.12843,1.82345 -6.12559,2.07522 -2.35621,0.29704 -4.11533,-0.053 -9.10341,-1.81134 -4.68782,-1.65251 -6.04724,-1.97339 -8.3605,-1.97339 -2.18347,0 -3.75927,0.41397 -6.46466,1.6983 -2.84845,1.35224 -4.31826,1.8429 -6.25,2.08643 -2.35621,0.29704 -4.11533,-0.053 -9.10341,-1.81134 -4.68782,-1.65251 -6.04725,-1.97339 -8.3605,-1.97339 -2.22502,0 -3.89673,0.4458 -6.4105,1.70951 -2.59137,1.30272 -4.12843,1.82345 -6.12559,2.07522 -2.35621,0.29704 -4.11533,-0.053 -9.10341,-1.81134 -4.68782,-1.65251 -6.04725,-1.97339 -8.3605,-1.97339 -2.22502,0 -3.89673,0.4458 -6.4105,1.70951 -2.59137,1.30272 -4.12843,1.82345 -6.12559,2.07522 -2.35621,0.29704 -4.11533,-0.053 -9.10341,-1.81134 -4.68782,-1.65251 -6.04725,-1.97339 -8.3605,-1.97339 -2.18347,0 -3.75928,0.41397 -6.46466,1.6983 -2.84845,1.35224 -4.31826,1.8429 -6.25,2.08643 -2.35621,0.29704 -4.11533,-0.053 -9.10341,-1.81134 -4.68782,-1.65251 -6.04725,-1.97339 -8.3605,-1.97339 -2.23892,0 -3.8974,0.44627 -6.50184,1.74955 -1.15813,0.57953 -2.628,1.22387 -3.26639,1.43188 -1.90297,0.62003 -4.17123,0.87922 -5.46521,0.62451 z"
       id="path6251"
       inkscape:connector-curvature="0" />
    <path
       style="fill:#008000;fill-opacity:0.94230772;fill-rule:nonzero;stroke:#000000;stroke-width:0.18035714;stroke-linecap:round;stroke-linejoin:bevel;stroke-miterlimit:4;stroke-opacity:0.52631579;stroke-dasharray:none"
       d="m 410.42175,458.76275 c -0.53566,-0.0888 -1.03666,-0.26022 -1.11333,-0.38091 -0.0767,-0.12069 -0.14064,-0.94278 -0.14214,-1.82687 l -0.003,-1.60743 2.99107,2.9e-4 c 3.5821,3.4e-4 4.54742,-0.23711 7.65261,-1.88235 2.60322,-1.37928 4.27773,-1.8469 6.49917,-1.81496 2.02166,0.0291 3.48389,0.37813 7.21197,1.72162 5.14613,1.85452 5.54618,1.94396 8.77018,1.96093 3.39882,0.0179 4.27164,-0.19688 7.61861,-1.87466 2.79743,-1.40231 4.38767,-1.83938 6.57782,-1.80789 2.02165,0.0291 3.48388,0.37813 7.21196,1.72162 5.14613,1.85452 5.54619,1.94396 8.77018,1.96093 3.43175,0.0181 4.42574,-0.22883 7.51868,-1.86759 2.60322,-1.37928 4.27773,-1.8469 6.49918,-1.81496 2.02165,0.0291 3.48388,0.37813 7.21196,1.72162 5.14613,1.85452 5.54619,1.94396 8.77018,1.96093 3.43175,0.0181 4.42574,-0.22883 7.51868,-1.86759 2.60322,-1.37928 4.27773,-1.8469 6.49918,-1.81496 2.02165,0.0291 3.48388,0.37813 7.21196,1.72162 5.14613,1.85452 5.54619,1.94396 8.77018,1.96093 3.39882,0.0179 4.27164,-0.19688 7.61861,-1.87466 2.79743,-1.40231 4.38768,-1.83938 6.57782,-1.80789 2.02166,0.0291 3.48389,0.37813 7.21196,1.72162 5.14613,1.85452 5.54619,1.94396 8.77018,1.96093 3.43175,0.0181 4.42574,-0.22883 7.51868,-1.86759 2.60323,-1.37928 4.27773,-1.8469 6.49918,-1.81496 2.01686,0.029 3.47213,0.37553 7.21196,1.71735 1.48432,0.53256 3.04027,1.06807 3.45768,1.19003 l 0.75893,0.22174 0,1.84674 c 0,1.0157 -0.0311,1.84673 -0.069,1.84673 -0.038,0 -1.64501,-0.55922 -3.57119,-1.24272 -4.11415,-1.45989 -5.57096,-1.79299 -7.84156,-1.79299 -2.22502,0 -3.89673,0.4458 -6.4105,1.70951 -2.59137,1.30272 -4.12843,1.82344 -6.12559,2.07522 -2.35621,0.29704 -4.11533,-0.053 -9.10341,-1.81134 -4.68782,-1.65252 -6.04724,-1.97339 -8.3605,-1.97339 -2.18347,0 -3.75927,0.41397 -6.46466,1.69829 -2.84845,1.35224 -4.31826,1.84291 -6.25,2.08644 -2.35621,0.29704 -4.11533,-0.053 -9.10341,-1.81134 -4.68782,-1.65252 -6.04725,-1.97339 -8.3605,-1.97339 -2.22502,0 -3.89673,0.4458 -6.4105,1.70951 -2.59137,1.30272 -4.12843,1.82344 -6.12559,2.07522 -2.35621,0.29704 -4.11533,-0.053 -9.10341,-1.81134 -4.68782,-1.65252 -6.04725,-1.97339 -8.3605,-1.97339 -2.22502,0 -3.89673,0.4458 -6.4105,1.70951 -2.59137,1.30272 -4.12843,1.82344 -6.12559,2.07522 -2.35621,0.29704 -4.11533,-0.053 -9.10341,-1.81134 -4.68782,-1.65252 -6.04725,-1.97339 -8.3605,-1.97339 -2.18347,0 -3.75928,0.41397 -6.46466,1.69829 -2.84845,1.35224 -4.31826,1.84291 -6.25,2.08644 -2.35621,0.29704 -4.11533,-0.053 -9.10341,-1.81134 -4.68782,-1.65252 -6.04725,-1.97339 -8.3605,-1.97339 -2.23892,0 -3.8974,0.44627 -6.50184,1.74955 -3.8732,1.93816 -6.36881,2.46668 -9.32962,1.9758 z"
       id="path6253"
       inkscape:connector-curvature="0" />
  </g>
</svg>
