<?xml version="1.0" encoding="UTF-8" standalone="no"?>
<!-- Created with Inkscape (http://www.inkscape.org/) -->

<svg
   xmlns:dc="http://purl.org/dc/elements/1.1/"
   xmlns:cc="http://creativecommons.org/ns#"
   xmlns:rdf="http://www.w3.org/1999/02/22-rdf-syntax-ns#"
   xmlns:svg="http://www.w3.org/2000/svg"
   xmlns="http://www.w3.org/2000/svg"
   xmlns:sodipodi="http://sodipodi.sourceforge.net/DTD/sodipodi-0.dtd"
   xmlns:inkscape="http://www.inkscape.org/namespaces/inkscape"
   width="744.09448819"
   height="1052.3622047"
   id="svg2"
   version="1.1"
   inkscape:version="0.48.4 r9939"
   sodipodi:docname="New document 1">
  <defs
     id="defs4" />
  <sodipodi:namedview
     id="base"
     pagecolor="#ffffff"
     bordercolor="#666666"
     borderopacity="1.0"
     inkscape:pageopacity="0.0"
     inkscape:pageshadow="2"
     inkscape:zoom="0.49497475"
     inkscape:cx="-334.44697"
     inkscape:cy="587.92961"
     inkscape:document-units="px"
     inkscape:current-layer="layer1"
     showgrid="false"
     inkscape:object-nodes="true"
     inkscape:snap-smooth-nodes="true"
     inkscape:window-width="1598"
     inkscape:window-height="850"
     inkscape:window-x="0"
     inkscape:window-y="0"
     inkscape:window-maximized="1" />
  <metadata
     id="metadata7">
    <rdf:RDF>
      <cc:Work
         rdf:about="">
        <dc:format>image/svg+xml</dc:format>
        <dc:type
           rdf:resource="http://purl.org/dc/dcmitype/StillImage" />
        <dc:title></dc:title>
      </cc:Work>
    </rdf:RDF>
  </metadata>
  <g
     inkscape:label="Layer 1"
     inkscape:groupmode="layer"
     id="layer1">
    <path
       style="fill:#0000ff;fill-opacity:0;fill-rule:nonzero;stroke:#000000;stroke-width:1.00999999;stroke-linecap:round;stroke-linejoin:bevel;stroke-miterlimit:4;stroke-opacity:0.52631579"
       d="m 421.97104,158.65799 c 0,30.77015 -27.50251,55.71428 -61.42857,55.71428 -33.92607,0 -61.42857,-24.94413 -61.42857,-55.71428 0,-30.77015 27.5025,-55.71429 61.42857,-55.71429 33.92606,0 61.42857,24.94414 61.42857,55.71429 z"
       id="path2985"
       inkscape:connector-curvature="0" />
    <path
       d="m 254.28572,356.64789 a 61.42857,55.714287 0 1 1 -122.85714,0 61.42857,55.714287 0 1 1 122.85714,0 z"
       sodipodi:ry="55.714287"
       sodipodi:rx="61.42857"
       sodipodi:cy="356.64789"
       sodipodi:cx="192.85715"
       id="path2987"
       style="fill:#000000;fill-opacity:0;fill-rule:nonzero;stroke:#000000;stroke-width:1.00999999;stroke-linecap:round;stroke-linejoin:bevel;stroke-miterlimit:4;stroke-opacity:0.52631579;stroke-dasharray:none"
       sodipodi:type="arc"
       transform="matrix(0.2122683,0,0,0.2122683,319.60501,82.952951)" />
    <path
       style="fill:#000000;fill-opacity:0;fill-rule:nonzero;stroke:#000000;stroke-width:0.72142857;stroke-linecap:round;stroke-linejoin:bevel;stroke-miterlimit:4;stroke-opacity:0.52631579;stroke-dasharray:none"
       d="m 353.75278,167.93998 c -4.24561,-2.55481 -5.67125,-5.51247 -5.43621,-11.27805 0.0986,-2.41795 3.92754,-6.87935 7.00925,-8.16697 10.81358,-4.5182 21.75293,6.3795 15.90847,15.84789 -3.2325,5.23685 -11.8201,7.0039 -17.48151,3.59713 z"
       id="path2989"
       inkscape:connector-curvature="0" />
    <path
       style="fill:#000000;fill-opacity:0;fill-rule:nonzero;stroke:#000000;stroke-width:0.72142857;stroke-linecap:round;stroke-linejoin:bevel;stroke-miterlimit:4;stroke-opacity:0.52631579;stroke-dasharray:none"
       d="m 354.83322,167.33356 c -3.60775,-1.90783 -5.7233,-5.36422 -5.7233,-9.35075 0,-2.32585 0.50309,-3.28679 3.05876,-5.84246 5.03783,-5.03783 11.26039,-5.20109 16.37563,-0.42966 2.31012,2.15486 2.91133,3.26175 3.17519,5.84585 0.45428,4.44894 -1.37679,7.74611 -5.4395,9.79482 -4.05182,2.04321 -7.55965,2.03776 -11.44678,-0.0178 z"
       id="path2991"
       inkscape:connector-curvature="0" />
    <path
       style="fill:#000000;fill-opacity:0;fill-rule:nonzero;stroke:#000000;stroke-width:0.72142857;stroke-linecap:round;stroke-linejoin:bevel;stroke-miterlimit:4;stroke-opacity:0.52631579;stroke-dasharray:none"
       d="m 355.89564,166.83685 c -3.54181,-1.83881 -5.39892,-4.31913 -5.8714,-7.84174 -0.31765,-2.3683 -0.0328,-3.07471 2.26544,-5.61861 4.71629,-5.22038 10.38213,-5.64456 15.35735,-1.14974 1.74908,1.58019 2.90346,3.35745 3.19697,4.92201 1.39461,7.43389 -7.80546,13.39649 -14.94836,9.68808 z"
       id="path2993"
       inkscape:connector-curvature="0" />
    <path
       style="fill:#000000;fill-opacity:0;fill-rule:nonzero;stroke:#000000;stroke-width:0.72142857;stroke-linecap:round;stroke-linejoin:bevel;stroke-miterlimit:4;stroke-opacity:0.52631579;stroke-dasharray:none"
       d=""
       id="path2995"
       inkscape:connector-curvature="0" />
    <path
       style="fill:#000000;fill-opacity:0;fill-rule:nonzero;stroke:#000000;stroke-width:0.72142857;stroke-linecap:round;stroke-linejoin:bevel;stroke-miterlimit:4;stroke-opacity:0.52631579;stroke-dasharray:none"
       d="m 358.73784,166.81369 c -4.32592,-0.93216 -8.19935,-5.11482 -8.19935,-8.85393 0,-1.81433 4.8609,-6.7017 7.54712,-7.58824 7.15224,-2.36045 14.56811,6.46172 10.56601,12.56969 -1.95628,2.98567 -6.24851,4.66227 -9.91378,3.87248 l 0,0 z"
       id="path2997"
       inkscape:connector-curvature="0" />
    <path
       style="fill:#000000;fill-opacity:0;fill-rule:nonzero;stroke:#000000;stroke-width:0.72142857;stroke-linecap:round;stroke-linejoin:bevel;stroke-miterlimit:4;stroke-opacity:0.52631579;stroke-dasharray:none"
       d="m 356.46606,164.94126 c -2.38469,-1.17588 -3.93098,-3.05204 -4.81237,-5.83899 -0.42314,-1.33797 0.0694,-2.23058 2.66021,-4.82143 2.72833,-2.72833 3.59471,-3.17948 6.10575,-3.17948 2.24184,0 3.50509,0.50821 5.40095,2.1728 4.24561,3.72768 4.05416,8.65379 -0.44287,11.39563 -2.80318,1.7091 -5.81038,1.8007 -8.91167,0.27147 l 0,0 z"
       id="path2999"
       inkscape:connector-curvature="0" />
    <path
       style="fill:#000000;fill-opacity:0;fill-rule:nonzero;stroke:#000000;stroke-width:0.72142857;stroke-linecap:round;stroke-linejoin:bevel;stroke-miterlimit:4;stroke-opacity:0.52631579;stroke-dasharray:none"
       d="m 356.99136,164.13597 c -1.36163,-0.68689 -3.08341,-2.30156 -3.82616,-3.58815 l -1.35046,-2.33925 3.19646,-3.19646 c 3.84804,-3.84803 6.38796,-4.18312 9.8197,-1.29551 4.28573,3.6062 4.22101,7.56326 -0.16746,10.23891 -2.87552,1.7532 -4.4796,1.79093 -7.67208,0.18046 l 0,0 z"
       id="path3001"
       inkscape:connector-curvature="0" />
    <path
       style="fill:#000000;fill-opacity:0;fill-rule:nonzero;stroke:#000000;stroke-width:0.72142857;stroke-linecap:round;stroke-linejoin:bevel;stroke-miterlimit:4;stroke-opacity:0.52631579;stroke-dasharray:none"
       d="m 357.20748,163.2012 c -1.24276,-0.79614 -2.748,-2.19296 -3.34497,-3.10404 -1.02998,-1.57196 -0.95109,-1.78671 1.54529,-4.20653 3.84856,-3.73052 5.80049,-3.98326 9.00864,-1.16647 3.43732,3.01801 3.35618,5.90791 -0.23358,8.31868 -2.96733,1.99278 -4.07268,2.01787 -6.97538,0.15836 l 0,0 z"
       id="path3003"
       inkscape:connector-curvature="0" />
    <path
       style="fill:#000000;fill-opacity:0;fill-rule:nonzero;stroke:#000000;stroke-width:0.72142857;stroke-linecap:round;stroke-linejoin:bevel;stroke-miterlimit:4;stroke-opacity:0.52631579;stroke-dasharray:none"
       d="m 358.03849,162.64302 c -1.17857,-0.72058 -2.59493,-1.85755 -3.14746,-2.5266 -0.88928,-1.0768 -0.7297,-1.50009 1.39012,-3.68718 3.52392,-3.63577 6.89265,-3.06321 9.54126,1.62164 0.73531,1.30063 -0.75512,3.60238 -3.12676,4.8288 -2.53874,1.31284 -2.08512,1.33589 -4.65716,-0.23666 z"
       id="path3005"
       inkscape:connector-curvature="0" />
    <path
       style="fill:#000000;fill-opacity:0;fill-rule:nonzero;stroke:#000000;stroke-width:0.72142857;stroke-linecap:round;stroke-linejoin:bevel;stroke-miterlimit:4;stroke-opacity:0.52631579;stroke-dasharray:none"
       d="m 357.18547,160.80413 -2.00412,-1.7258 1.72012,-1.83335 c 2.52575,-2.69201 4.18012,-2.98204 6.19779,-1.08653 2.05976,1.93504 2.19279,3.58383 0.4187,5.18935 -1.83154,1.65752 -3.99168,1.47207 -6.33249,-0.54367 z"
       id="path3007"
       inkscape:connector-curvature="0" />
    <path
       style="fill:#000000;fill-opacity:0;fill-rule:nonzero;stroke:#000000;stroke-width:0.72142857;stroke-linecap:round;stroke-linejoin:bevel;stroke-miterlimit:4;stroke-opacity:0.52631579;stroke-dasharray:none"
       d=""
       id="path3009"
       inkscape:connector-curvature="0" />
    <path
       style="fill:#000000;fill-opacity:0;fill-rule:nonzero;stroke:#000000;stroke-width:0.72142857;stroke-linecap:round;stroke-linejoin:bevel;stroke-miterlimit:4;stroke-opacity:0.52631579;stroke-dasharray:none"
       d=""
       id="path3011"
       inkscape:connector-curvature="0" />
    <path
       style="fill:#000000;fill-opacity:0;fill-rule:nonzero;stroke:#000000;stroke-width:0.72142857;stroke-linecap:round;stroke-linejoin:bevel;stroke-miterlimit:4;stroke-opacity:0.52631579;stroke-dasharray:none"
       d="m 358.3024,160.45521 c -1.65572,-1.34072 -1.66044,-1.38213 -0.32557,-2.85714 1.70238,-1.88111 3.40027,-1.90396 5.06166,-0.0681 1.2476,1.37858 1.2476,1.47857 0,2.85715 -1.61228,1.78155 -2.60251,1.7958 -4.73609,0.0681 l 0,0 z"
       id="path3013"
       inkscape:connector-curvature="0" />
    <path
       style="fill:#000000;fill-opacity:0;fill-rule:nonzero;stroke:#000000;stroke-width:0.72142857;stroke-linecap:round;stroke-linejoin:bevel;stroke-miterlimit:4;stroke-opacity:0.52631579;stroke-dasharray:none"
       d=""
       id="path3015"
       inkscape:connector-curvature="0" />
    <path
       style="fill:#000000;fill-opacity:0;fill-rule:nonzero;stroke:#000000;stroke-width:0.72142857;stroke-linecap:round;stroke-linejoin:bevel;stroke-miterlimit:4;stroke-opacity:0.52631579;stroke-dasharray:none"
       d=""
       id="path3017"
       inkscape:connector-curvature="0" />
    <path
       style="fill:#000000;fill-opacity:0;fill-rule:nonzero;stroke:#000000;stroke-width:0.72142857;stroke-linecap:round;stroke-linejoin:bevel;stroke-miterlimit:4;stroke-opacity:0.52631579;stroke-dasharray:none"
       d=""
       id="path3019"
       inkscape:connector-curvature="0" />
    <path
       style="fill:#000000;fill-opacity:0;fill-rule:nonzero;stroke:#000000;stroke-width:0.72142857;stroke-linecap:round;stroke-linejoin:bevel;stroke-miterlimit:4;stroke-opacity:0.52631579;stroke-dasharray:none"
       d="m 359.08017,159.99408 c -0.75913,-0.91469 -0.71222,-1.31401 0.26968,-2.29591 1.10867,-1.10867 1.26862,-1.10867 2.37728,0 0.98191,0.9819 1.02882,1.38122 0.26969,2.29591 -1.1562,1.39313 -1.76046,1.39313 -2.91665,0 l 0,0 z"
       id="path3021"
       inkscape:connector-curvature="0" />
    <path
       style="fill:#000000;fill-opacity:0;fill-rule:nonzero;stroke:#000000;stroke-width:0.72142857;stroke-linecap:round;stroke-linejoin:bevel;stroke-miterlimit:4;stroke-opacity:0.52631579;stroke-dasharray:none"
       d=""
       id="path3023"
       inkscape:connector-curvature="0" />
    <g
       id="g3822"
       style="fill:#9e9356;fill-opacity:1"
       transform="translate(167.68532,-197.9899)">
      <g
         id="g3826"
         style="fill:#6bb4b9;fill-opacity:1">
        <path
           style="fill:#6bb4b9;fill-opacity:1;stroke:#000000;stroke-width:1px;stroke-linecap:butt;stroke-linejoin:miter;stroke-opacity:0.23557691"
           d="m 136.33903,379.17443 c 0.0143,0.0287 0.78978,2.50126 0.53664,1.43631 0.0753,0.0376 0.19301,-0.0595 0.25254,0 0.94837,1.08989 1.64662,2.42811 2.27284,3.53553 18.59235,31.79091 38.91024,78.91128 51.51778,114.39978 0.83353,2.5245 1.25315,5.23216 2.02031,7.32361 0.2175,0.7745 0.56142,2.01783 0.75761,2.77791 0.30092,0.73744 0.7549,0.58364 0.99434,-1.07329 7.27339,-43.58357 34.59115,-78.74622 47.87176,-114.71545 1.21236,-4.10268 4.87697,-8.93459 3.6618,-10.48032 0.0595,-0.0595 0.19302,0.0595 0.25254,0 0.16835,-0.16835 -0.16835,-0.33673 0,-0.50508 0.0595,-0.0595 0.19302,0.0595 0.25254,0 0.11905,-0.11905 -0.11905,-0.38603 0,-0.50508 0.0595,-0.0595 0.19301,0.0595 0.25254,0 0.0595,-0.0595 -0.0595,-0.19301 0,-0.25253 0.33672,-0.33672 0.25254,0.42089 0.25254,-0.25254"
           id="path3036"
           inkscape:connector-curvature="0"
           sodipodi:nodetypes="cccccccccccscsccc" />
        <path
           id="path3046"
           d="m 254.28572,356.64789 c 0,30.77015 -27.50251,55.71428 -61.42857,55.71428 -33.92607,0 -61.42857,-24.94413 -61.42857,-55.71428 0,-30.77015 27.5025,-55.71429 61.42857,-55.71429 33.92606,0 61.42857,24.94414 61.42857,55.71429 z"
           style="fill:#6bb4b9;fill-opacity:1;fill-rule:nonzero;stroke:#000000;stroke-width:1.00999999;stroke-linecap:round;stroke-linejoin:bevel;stroke-miterlimit:4;stroke-opacity:0"
           inkscape:connector-curvature="0" />
      </g>
    </g>
    <path
       style="fill:#ffcc00;fill-opacity:1;fill-rule:nonzero;stroke:#000000;stroke-width:0.35827273;stroke-linecap:round;stroke-linejoin:bevel;stroke-miterlimit:4;stroke-opacity:1"
       d="m 382.33275,158.65799 c 0,10.91495 -9.75584,19.76327 -21.79028,19.76327 -12.03444,0 -21.79028,-8.84832 -21.79028,-19.76327 0,-10.91496 9.75584,-19.76328 21.79028,-19.76328 12.03444,0 21.79028,8.84832 21.79028,19.76328 z"
       id="path3816"
       inkscape:connector-curvature="0" />
  </g>
</svg>
