<?xml version="1.0" encoding="UTF-8" standalone="no"?>
<!-- Created with Inkscape (http://www.inkscape.org/) -->

<svg
   xmlns:osb="http://www.openswatchbook.org/uri/2009/osb"
   xmlns:dc="http://purl.org/dc/elements/1.1/"
   xmlns:cc="http://creativecommons.org/ns#"
   xmlns:rdf="http://www.w3.org/1999/02/22-rdf-syntax-ns#"
   xmlns:svg="http://www.w3.org/2000/svg"
   xmlns="http://www.w3.org/2000/svg"
   xmlns:xlink="http://www.w3.org/1999/xlink"
   xmlns:sodipodi="http://sodipodi.sourceforge.net/DTD/sodipodi-0.dtd"
   xmlns:inkscape="http://www.inkscape.org/namespaces/inkscape"
   inkscape:version="0.48.4 r9939"
   version="1.1"
   id="svg2"
   height="1052.3622047"
   width="744.09448819"
   sodipodi:docname="New document 1">
  <sodipodi:namedview
     id="base"
     pagecolor="#ffffff"
     bordercolor="#666666"
     borderopacity="1.0"
     inkscape:pageopacity="0.0"
     inkscape:pageshadow="2"
     inkscape:zoom="0.7"
     inkscape:cx="-124.39619"
     inkscape:cy="664.43939"
     inkscape:document-units="px"
     inkscape:current-layer="layer1"
     showgrid="false"
     inkscape:window-width="1598"
     inkscape:window-height="850"
     inkscape:window-x="0"
     inkscape:window-y="0"
     inkscape:window-maximized="1" />
  <defs
     id="defs4">
    <linearGradient
       inkscape:collect="always"
       id="linearGradient5588">
      <stop
         style="stop-color:#0094ea;stop-opacity:1;"
         offset="0"
         id="stop5590" />
      <stop
         style="stop-color:#0094ea;stop-opacity:0;"
         offset="1"
         id="stop5592" />
    </linearGradient>
    <inkscape:perspective
       sodipodi:type="inkscape:persp3d"
       inkscape:vp_x="0 : 526.18109 : 1"
       inkscape:vp_y="0 : 1000 : 0"
       inkscape:vp_z="744.09448 : 526.18109 : 1"
       inkscape:persp3d-origin="372.04724 : 350.78739 : 1"
       id="perspective5580" />
    <linearGradient
       inkscape:collect="always"
       id="linearGradient5563">
      <stop
         style="stop-color:#000000;stop-opacity:1;"
         offset="0"
         id="stop5565" />
      <stop
         style="stop-color:#000000;stop-opacity:0;"
         offset="1"
         id="stop5567" />
    </linearGradient>
    <linearGradient
       osb:paint="gradient"
       id="linearGradient5309">
      <stop
         id="stop5311"
         offset="0"
         style="stop-color:#000000;stop-opacity:1;" />
      <stop
         id="stop5313"
         offset="1"
         style="stop-color:#000000;stop-opacity:0;" />
    </linearGradient>
    <pattern
       inkscape:collect="always"
       patternUnits="userSpaceOnUse"
       width="2"
       height="2"
       patternTransform="translate(0,0) scale(10,10)"
       id="Checkerboard"
       inkscape:stockid="Checkerboard">
      <rect
         style="fill:black;stroke:none"
         x="0"
         y="0"
         width="1"
         height="1"
         id="rect4575" />
      <rect
         style="fill:black;stroke:none"
         x="1"
         y="1"
         width="1"
         height="1"
         id="rect4577" />
    </pattern>
    <filter
       color-interpolation-filters="sRGB"
       inkscape:menu-tooltip="Eroded metal texture with ridges, grooves, holes and bumps"
       inkscape:menu="Materials"
       inkscape:label="Eroded metal"
       id="filter2987">
      <feGaussianBlur
         stdDeviation="1"
         in="SourceGraphic"
         result="result0"
         id="feGaussianBlur2989" />
      <feTurbulence
         result="result1"
         numOctaves="4"
         seed="4"
         baseFrequency="0.057"
         type="turbulence"
         id="feTurbulence2991" />
      <feDisplacementMap
         result="result91"
         xChannelSelector="R"
         in2="result1"
         id="feDisplacementMap2993" />
      <feComposite
         in="result0"
         operator="out"
         result="result2"
         in2="result91"
         id="feComposite2995" />
      <feComposite
         result="result5"
         operator="arithmetic"
         in="SourceAlpha"
         k3="1.2"
         k1="0.1"
         in2="result2"
         id="feComposite2997" />
      <feBlend
         mode="multiply"
         result="fbSourceGraphic"
         in2="result5"
         id="feBlend2999" />
      <feGaussianBlur
         result="result0"
         in="fbSourceGraphic"
         stdDeviation="3"
         id="feGaussianBlur3001" />
      <feSpecularLighting
         specularExponent="15"
         specularConstant="0.4"
         surfaceScale="3"
         lighting-color="rgb(254,230,93)"
         result="result1"
         in="result0"
         id="feSpecularLighting3003">
        <fePointLight
           z="20000"
           y="-10000"
           x="-5000"
           id="fePointLight3005" />
      </feSpecularLighting>
      <feComposite
         operator="in"
         result="result2"
         in="result1"
         in2="fbSourceGraphic"
         id="feComposite3007" />
      <feComposite
         k3="3.5"
         k2="2.5"
         operator="arithmetic"
         result="result4"
         in="fbSourceGraphic"
         k1="-1"
         in2="result2"
         id="feComposite3009" />
      <feBlend
         mode="multiply"
         in2="result4"
         id="feBlend3011" />
    </filter>
    <filter
       color-interpolation-filters="sRGB"
       height="1"
       width="1"
       y="0"
       x="0"
       inkscape:menu-tooltip="Blend image or object with a flood color and set lightness and contrast"
       inkscape:menu="Color"
       inkscape:label="Colorize"
       id="filter5271"
       inkscape:collect="always">
      <feGaussianBlur
         result="fbSourceGraphic"
         id="feGaussianBlur5273"
         stdDeviation="0.33142858"
         inkscape:collect="always" />
      <feColorMatrix
         id="feColorMatrix5321"
         values="0 0 0 -1 0 0 0 0 -1 0 0 0 0 -1 0 0 0 0 1 0"
         in="fbSourceGraphic"
         result="fbSourceGraphicAlpha" />
      <feColorMatrix
         result="result2"
         type="saturate"
         in="fbSourceGraphic"
         values="1"
         id="feColorMatrix5323" />
      <feFlood
         result="result1"
         flood-opacity="1"
         flood-color="rgb(254,102,0)"
         id="feFlood5325" />
      <feBlend
         result="result3"
         in="result1"
         mode="multiply"
         in2="result2"
         id="feBlend5327" />
      <feComposite
         result="result4"
         k2="1"
         operator="in"
         in2="fbSourceGraphic"
         id="feComposite5329" />
    </filter>
    <pattern
       inkscape:collect="always"
       patternUnits="userSpaceOnUse"
       width="2"
       height="2"
       patternTransform="translate(0,0) scale(10,10)"
       id="Checkerboard-369"
       inkscape:stockid="Checkerboard">
      <rect
         style="fill:#000000;stroke:none"
         x="0"
         y="0"
         width="1"
         height="1"
         id="rect5471" />
      <rect
         style="fill:#000000;stroke:none"
         x="1"
         y="1"
         width="1"
         height="1"
         id="rect5473" />
    </pattern>
    <pattern
       inkscape:collect="always"
       patternUnits="userSpaceOnUse"
       width="2"
       height="2"
       patternTransform="translate(0,0) scale(10,10)"
       id="Checkerboard-450"
       inkscape:stockid="Checkerboard">
      <rect
         style="fill:#000000;stroke:none"
         x="0"
         y="0"
         width="1"
         height="1"
         id="rect5476" />
      <rect
         style="fill:#000000;stroke:none"
         x="1"
         y="1"
         width="1"
         height="1"
         id="rect5478" />
    </pattern>
    <filter
       color-interpolation-filters="sRGB"
       height="1"
       width="1"
       y="0"
       x="0"
       inkscape:menu-tooltip="Blend image or object with a flood color and set lightness and contrast"
       inkscape:menu="Color"
       inkscape:label="Colorize"
       id="filter5271-0"
       inkscape:collect="always">
      <feGaussianBlur
         result="fbSourceGraphic"
         id="feGaussianBlur5273-7"
         stdDeviation="0.33142858"
         inkscape:collect="always" />
      <feColorMatrix
         id="feColorMatrix5321-6"
         values="0 0 0 -1 0 0 0 0 -1 0 0 0 0 -1 0 0 0 0 1 0"
         in="fbSourceGraphic"
         result="fbSourceGraphicAlpha" />
      <feColorMatrix
         result="result2"
         type="saturate"
         in="fbSourceGraphic"
         values="1"
         id="feColorMatrix5323-6" />
      <feFlood
         result="result1"
         flood-opacity="1"
         flood-color="rgb(254,102,0)"
         id="feFlood5325-6" />
      <feBlend
         result="result3"
         in="result1"
         mode="multiply"
         in2="result2"
         id="feBlend5327-8" />
      <feComposite
         result="result4"
         operator="in"
         in2="fbSourceGraphic"
         id="feComposite5329-2" />
    </filter>
    <radialGradient
       inkscape:collect="always"
       xlink:href="#linearGradient5563"
       id="radialGradient5569"
       cx="301.42856"
       cy="450.93362"
       fx="301.42856"
       fy="450.93362"
       r="204.78572"
       gradientTransform="matrix(1,0,0,0.62329961,0,169.86687)"
       gradientUnits="userSpaceOnUse" />
    <pattern
       patternUnits="userSpaceOnUse"
       width="409.5625"
       height="255.28125"
       patternTransform="translate(96.65625,323.28125)"
       id="pattern5575">
      <path
         sodipodi:type="arc"
         style="opacity:0.97000002;fill:url(#Checkerboard-369);fill-opacity:1;fill-rule:nonzero;stroke:url(#Checkerboard-450);stroke-width:1px;stroke-linecap:butt;stroke-linejoin:miter;stroke-opacity:0.52631579;filter:url(#filter5271)"
         id="path2985"
         sodipodi:cx="301.42856"
         sodipodi:cy="450.93362"
         sodipodi:rx="204.28572"
         sodipodi:ry="127.14286"
         d="m 505.71428,450.93362 a 204.28572,127.14286 0 1 1 -408.571442,0 204.28572,127.14286 0 1 1 408.571442,0 z"
         transform="translate(-96.65625,-323.28125)" />
    </pattern>
    <linearGradient
       inkscape:collect="always"
       xlink:href="#linearGradient5588"
       id="linearGradient5594"
       x1="209.67857"
       y1="192.71932"
       x2="218.37034"
       y2="192.71932"
       gradientUnits="userSpaceOnUse" />
    <linearGradient
       inkscape:collect="always"
       xlink:href="#linearGradient5606-5"
       id="linearGradient5616-8"
       gradientUnits="userSpaceOnUse"
       x1="62.67857"
       y1="200.39789"
       x2="180.53572"
       y2="212.54076"
       gradientTransform="matrix(-0.41974699,0,0,0.44540508,226.11953,92.372749)" />
    <linearGradient
       inkscape:collect="always"
       id="linearGradient5606-5">
      <stop
         style="stop-color:#0094ea;stop-opacity:1;"
         offset="0"
         id="stop5608-9" />
      <stop
         style="stop-color:#00e300;stop-opacity:1"
         offset="1"
         id="stop5610-2" />
    </linearGradient>
  </defs>
  <metadata
     id="metadata7">
    <rdf:RDF>
      <cc:Work
         rdf:about="">
        <dc:format>image/svg+xml</dc:format>
        <dc:type
           rdf:resource="http://purl.org/dc/dcmitype/StillImage" />
        <dc:title></dc:title>
      </cc:Work>
    </rdf:RDF>
  </metadata>
  <g
     style="display:inline"
     id="layer1"
     inkscape:groupmode="layer"
     inkscape:label="Layer 1">
    <path
       sodipodi:type="arc"
       style="opacity:0.97000002;fill:#0094ea;fill-opacity:0.72115383;fill-rule:nonzero;stroke:#000000;stroke-opacity:0.52631579"
       id="path5582"
       sodipodi:cx="130.71428"
       sodipodi:cy="207.36218"
       sodipodi:rx="70.714287"
       sodipodi:ry="70.714287"
       d="m 201.42857,207.36218 a 70.714287,70.714287 0 1 1 -141.428578,0 70.714287,70.714287 0 1 1 141.428578,0 z"
       transform="translate(82.857143,52.958668)" />
    <path
       style="fill:#008000;fill-opacity:0.65384617;stroke:#000000;stroke-width:0.78485394px;stroke-linecap:butt;stroke-linejoin:miter;stroke-opacity:1"
       d="m 195.58269,218.4996 c -0.6268,-0.30227 -0.99666,-0.29795 -1.58226,-0.29795 -0.0879,0 -0.20155,0.0702 -0.26371,0 -0.0621,-0.0702 0.0621,-0.22774 0,-0.29795 -0.009,-0.0102 -0.72717,0 -0.79113,0 -1.58225,0 -3.1645,0 -4.74675,0 -0.61533,0 -1.23066,0 -1.84598,0 -0.0879,0 -0.17579,0 -0.2637,0 -0.0879,0 -0.18509,-0.0444 -0.26371,0 -0.11119,0.0628 -0.15252,0.23514 -0.26372,0.29795 -0.15724,0.0888 -0.37016,-0.0888 -0.52742,0 -0.11119,0.0628 -0.15251,0.23512 -0.2637,0.29795 -0.0786,0.0444 -0.18032,-0.0314 -0.26371,0 -0.18648,0.0702 -0.34095,0.22769 -0.52742,0.29793 -0.0834,0.0314 -0.18509,-0.0444 -0.26371,0 -0.22237,0.12559 -0.30503,0.47028 -0.52742,0.5959 -0.0786,0.0444 -0.18508,-0.0444 -0.26371,0 -0.58308,0.32938 -0.0818,0.18491 -0.26371,0.59589 -0.11119,0.25125 -0.44879,0.3294 -0.52742,0.59588 -0.0556,0.18843 0.0556,0.40746 0,0.59588 -0.0786,0.26651 -0.41622,0.34465 -0.52741,0.5959 -0.0393,0.0888 0.0278,0.20373 0,0.29794 -0.0622,0.21069 -0.20155,0.38522 -0.2637,0.59589 -0.0278,0.0942 0.0393,0.20912 0,0.29795 -0.11119,0.25125 -0.41624,0.34465 -0.52743,0.59589 -0.0393,0.0888 0.0622,0.22772 0,0.29795 -0.0622,0.0702 -0.20155,-0.0702 -0.26371,0 -0.0622,0.0702 0.0393,0.20912 0,0.29794 -0.0556,0.12559 -0.20811,0.17232 -0.2637,0.29795 -0.0393,0.0888 0.0622,0.22772 0,0.29795 -0.0622,0.0702 -0.20156,-0.0702 -0.26372,0 -0.17556,0.19836 0.17558,0.39753 0,0.59589 -0.0622,0.0702 -0.20155,-0.0702 -0.26371,0 0,0.79451 0.0879,-0.0993 -0.2637,0.29794 -0.0622,0.0702 0.0622,0.22771 0,0.29795 -0.0622,0.0702 -0.18509,-0.0444 -0.26371,0 -0.11119,0.0629 -0.15252,0.23513 -0.26372,0.29794 -0.15724,0.0889 -0.4031,-0.14045 -0.52741,0 -0.0622,0.0702 0.0622,0.22771 0,0.29795 -0.0816,0.0922 -1.23689,-0.0922 -1.31855,0 -0.0622,0.0702 0.0622,0.22771 0,0.29795 -0.12431,0.14044 -0.37017,-0.0888 -0.52741,0 -0.11119,0.0629 -0.15252,0.23512 -0.26372,0.29793 -0.15724,0.0888 -0.37016,-0.0888 -0.52741,0 -0.11119,0.0629 -0.15252,0.23513 -0.26371,0.29795 -0.15724,0.0888 -0.4031,-0.14046 -0.52742,0 -0.0622,0.0702 0.0786,0.25352 0,0.29795 -0.21096,0.11921 -0.58016,-0.1192 -0.79113,0 -0.11119,0.0628 -0.15252,0.23512 -0.2637,0.29794 -0.0786,0.0444 -0.20156,-0.0702 -0.26371,0 -0.0622,0.0702 0.0622,0.22771 0,0.29795 -0.12432,0.14045 -0.40311,-0.14046 -0.52742,0 -0.0622,0.0702 0.0622,0.22771 0,0.29795 -0.0622,0.0702 -0.20156,-0.0702 -0.26371,0 -0.0622,0.0702 0.0393,0.20911 0,0.29793 -0.0556,0.12559 -0.20812,0.17233 -0.26371,0.29795 -0.0393,0.0889 0.0622,0.22772 0,0.29795 -0.0622,0.0702 -0.20155,-0.0702 -0.26371,0 -0.0622,0.0702 0.0622,0.22771 0,0.29794 -0.0622,0.0702 -0.17581,0 -0.26371,0 0,0.0993 0.0393,0.2091 0,0.29795 -0.0556,0.12558 -0.20812,0.17231 -0.26371,0.29794 -0.0393,0.0888 0.0622,0.22772 0,0.29794 -0.0622,0.0702 -0.20155,-0.0702 -0.26371,0 -0.12431,0.14045 0.12431,0.45545 0,0.59589 -0.0622,0.0702 -0.20155,-0.0702 -0.26371,0 -0.13185,0.14897 0.13186,0.74485 0,0.89384 -0.0622,0.0702 -0.20155,-0.0702 -0.26371,0 -0.0622,0.0702 0,0.19864 0,0.29794 0,0.0993 0,0.19863 0,0.29794 0,0.99316 0,1.98631 0,2.97946 0,0.14048 -0.012,1.47622 0,1.48972 0.0622,0.0702 0.20155,-0.0702 0.26371,0 0.0622,0.0702 -0.0393,0.20913 0,0.29794 0.0556,0.12559 0.20812,0.17233 0.26371,0.29796 0.0911,0.20581 -0.0926,1.38515 0,1.48972 0.0622,0.0702 0.20155,-0.0702 0.26371,0 0.0622,0.0702 0,0.19863 0,0.29795 0,0.59589 0,1.19178 0,1.78767 0,0.0993 0,0.19863 0,0.29793 0,0.0993 0.0393,0.20913 0,0.29795 -0.87462,0.98817 0.12431,-0.28089 -0.26371,0.59588 -0.11119,0.25127 -0.41623,0.34465 -0.52742,0.59591 -0.0393,0.0888 0.0393,0.2091 0,0.29793 -0.15822,0.35754 -0.6329,0.53631 -0.79113,0.89384 -0.0393,0.0888 0.0622,0.22773 0,0.29795 -0.0622,0.0702 -0.20155,-0.0702 -0.26371,0 -0.0622,0.0702 0.0393,0.20912 0,0.29795 -0.0556,0.12558 -0.20811,0.17231 -0.26371,0.29794 -0.0393,0.0888 0.0393,0.20912 0,0.29794 -0.54874,1.23997 0.0182,-0.31851 -0.52741,0.29794 -0.0622,0.0702 0.0393,0.20913 0,0.29796 -0.11119,0.25124 -0.41623,0.34464 -0.52742,0.59588 -0.0393,0.0888 0.0278,0.20373 0,0.29795 -0.0622,0.21068 -0.20155,0.38521 -0.26371,0.59588 -0.0278,0.0942 0.0393,0.20912 0,0.29796 -0.0556,0.12558 -0.20812,0.1723 -0.26371,0.29795 -0.0393,0.0888 0.0393,0.20911 0,0.29793 -0.11119,0.25125 -0.4488,0.32941 -0.52742,0.5959 -0.0556,0.18843 0.0556,0.40744 0,0.59589 -0.0393,0.13324 -0.20811,0.17232 -0.26371,0.29793 -0.0393,0.0889 0.0278,0.20373 0,0.29796 -0.0622,0.21069 -0.20155,0.3852 -0.26371,0.59589 -0.0278,0.0942 0.0393,0.20911 0,0.29796 -0.0556,0.12558 -0.20811,0.1723 -0.26371,0.29793 -0.0393,0.0889 0,0.19863 0,0.29795 0,0.19863 0.0556,0.40744 0,0.59588 -0.0393,0.13325 -0.20811,0.17233 -0.26371,0.29795 -0.0786,0.17765 0.0786,0.41823 0,0.59588 -0.0556,0.12559 -0.20811,0.17232 -0.26371,0.29795 -0.0393,0.0888 0,0.19862 0,0.29793 0,0.0993 0,0.19865 0,0.29795 0,0.27065 0.0571,1.89222 0,2.08562 -0.0393,0.13325 -0.22439,0.16471 -0.26371,0.29796 -0.0402,0.13637 0,1.32341 0,1.48972 0,0.79451 0,1.58903 0,2.38355 0,0.0722 -0.008,0.88426 0,0.89384 0.0622,0.0702 0.20156,-0.0702 0.26371,0 0.0622,0.0702 -0.0393,0.20911 0,0.29795 0.60024,0.67816 0.0697,-0.0618 0.26371,0.59589 0.63672,2.15814 -0.076,-0.46975 0.52742,0.89384 0.10549,0.23834 -0.10548,0.65547 0,0.89381 0.0556,0.12559 0.20812,0.17235 0.26371,0.29796 0.0786,0.17765 -0.12431,0.45543 0,0.59588 0.0622,0.0702 0.20155,-0.0702 0.26371,0 0.13185,0.14899 -0.13185,0.74487 0,0.89383 0.0622,0.0702 0.20155,-0.0702 0.26371,0 0.0622,0.0702 -0.0393,0.20913 0,0.29796 0.0556,0.12558 0.20811,0.17232 0.26371,0.29794 0.0393,0.0888 -0.0393,0.20912 0,0.29795 0.0556,0.12559 0.20811,0.17232 0.26371,0.29794 0.0393,0.0888 -0.0393,0.20913 0,0.29795 0.0556,0.12559 0.2244,0.1647 0.26371,0.29795 0.0556,0.18844 -0.0556,0.40744 0,0.59589 0.0595,0.20176 0.6904,0.66624 0.79113,0.89383 0.0393,0.0889 -0.0393,0.20911 0,0.29795 0.0556,0.12558 0.20811,0.17232 0.2637,0.29795 0.0393,0.0888 0,0.19862 0,0.29794 0.0879,0.19862 0.15468,0.4111 0.26371,0.59589 0.13792,0.23373 0.4488,0.32939 0.52742,0.59589 0.0556,0.18843 -0.0556,0.40745 0,0.59588 0.0786,0.2665 0.4488,0.32941 0.52742,0.5959 0.0556,0.18845 -0.0556,0.40745 0,0.59589 0.0786,0.26649 0.41623,0.34464 0.52742,0.59588 0.0393,0.0889 -0.0393,0.20911 0,0.29795 0.15823,0.35753 0.6329,0.5363 0.79113,0.89383 0.0393,0.0888 -0.0622,0.22772 0,0.29795 0.12431,0.14044 0.4031,-0.14046 0.52742,0 0.0622,0.0702 -0.0622,0.22772 0,0.29794 0.0622,0.0702 0.1758,0 0.26371,0 0.0879,0 0.17581,0 0.2637,0 0.52743,0 1.05484,0 1.58226,0 0.0879,0 0.17581,0 0.26371,0 0.0879,0 0.18509,0.0444 0.26371,0 0.11118,-0.0628 0.15252,-0.23512 0.26371,-0.29794 0.0786,-0.0444 0.20155,0.0702 0.26371,0 0.0622,-0.0702 0,-0.19863 0,-0.29795 0.0879,-0.0993 0.16027,-0.22003 0.2637,-0.29794 0.16356,-0.12316 0.36388,-0.17477 0.52742,-0.29794 0.24006,-0.18082 0.5574,-0.7618 0.79113,-0.89383 0.0786,-0.0444 0.20155,0.0702 0.26371,0 0.0622,-0.0702 0,-0.19864 0,-0.29795 0.0879,-0.19864 0.12472,-0.43887 0.26371,-0.59589 0.0622,-0.0702 0.18509,0.0445 0.26371,0 0.11119,-0.0629 0.1758,-0.19864 0.26371,-0.29794 0.0879,-0.0993 0.1758,-0.19865 0.2637,-0.29796 0.13884,-0.15685 0.72072,-0.73469 0.79113,-0.89383 0.0393,-0.0888 0,-0.19864 0,-0.29794 0.0879,-0.0993 0.20812,-0.17232 0.26371,-0.29795 0.0393,-0.0889 -0.0622,-0.22773 0,-0.29794 0.0622,-0.0702 0.20156,0.0702 0.26372,0 0.0622,-0.0702 -0.0278,-0.20373 0,-0.29794 0.0622,-0.21069 0.20155,-0.38522 0.2637,-0.5959 0.0278,-0.0942 -0.0393,-0.20912 0,-0.29795 0.0556,-0.12558 0.20812,-0.1723 0.26371,-0.29794 0.0787,-0.17766 -0.12432,-0.45545 0,-0.59589 0.0622,-0.0702 0.20155,0.0702 0.26371,0 0.0622,-0.0702 -0.0393,-0.20912 0,-0.29794 0.0556,-0.12559 0.20812,-0.17233 0.26372,-0.29795 0.0393,-0.0888 -0.0622,-0.22771 0,-0.29795 0.0622,-0.0702 0.20154,0.0702 0.2637,0 0.0622,-0.0702 -0.0622,-0.22771 0,-0.29794 0.12432,-0.14045 0.40311,0.14045 0.52741,0 0.0622,-0.0702 -0.0622,-0.22772 0,-0.29795 0.0622,-0.0702 0.17581,0 0.26372,0 0.61531,0 1.23064,0 1.84596,0 0.61532,0 1.23065,0 1.84597,0 0.0879,0 0.17581,0 0.2637,0 0.0879,0 0.1851,-0.0444 0.26372,0 0.11112,0.0629 0.15251,0.23514 0.2637,0.29795 0.0787,0.0444 0.17582,0 0.26371,0 0.0879,0.0993 0.15253,0.23512 0.26372,0.29794 0.15724,0.0888 0.37016,-0.0888 0.52741,0 0.22238,0.12559 0.30505,0.47027 0.52742,0.5959 0.0785,0.0444 0.18508,-0.0444 0.26371,0 0.22238,0.12558 0.30505,0.47025 0.52741,0.59589 0.0785,0.0444 0.18509,-0.0444 0.26372,0 0.22238,0.12559 0.30504,0.47027 0.5274,0.59588 0.0785,0.0444 0.20156,-0.0702 0.26373,0 0.0621,0.0702 -0.0394,0.20913 0,0.29795 0.0556,0.12559 0.20811,0.17232 0.26371,0.29795 0.0394,0.0888 -0.0621,0.22771 0,0.29795 0.0621,0.0702 0.18508,-0.0444 0.26371,0 1.09748,0.61998 -0.28194,-0.0206 0.26369,0.59588 0.0621,0.0702 0.20156,-0.0702 0.26372,0 0.0621,0.0702 -0.0621,0.22772 0,0.29795 0.0621,0.0702 0.20153,-0.0702 0.2637,0 0.0621,0.0702 -0.0278,0.20374 0,0.29794 0.0621,0.21067 0.20155,0.3852 0.26371,0.5959 0.0278,0.0942 -0.0394,0.20911 0,0.29793 0.0556,0.12559 0.20812,0.17233 0.26372,0.29796 0.0393,0.0889 -0.0393,0.2091 0,0.29794 0.60344,1.36358 -0.1094,-1.2643 0.52741,0.89384 0.0279,0.0942 -0.0394,0.20911 0,0.29793 0.061,0.13798 0.89974,1.01656 1.05484,1.19178 0.0879,0.0993 0.20812,0.17233 0.26371,0.29795 0.0394,0.0888 -0.0621,0.22772 0,0.29794 0.0621,0.0702 0.18509,-0.0444 0.26371,0 0.22238,0.12559 0.30504,0.47028 0.5274,0.5959 0.0787,0.0444 0.20158,-0.0702 0.26372,0 0.0621,0.0702 -0.0394,0.20911 0,0.29794 0.29154,0.65879 0.16368,0.0924 0.52743,0.29794 0.11113,0.0629 0.15251,0.23514 0.26372,0.29795 0.0785,0.0444 0.1803,-0.0314 0.26369,0 0.18647,0.0702 0.34095,0.22771 0.52743,0.29793 0.0833,0.0314 0.18508,-0.0444 0.26371,0 0.11113,0.0629 0.1758,0.19864 0.2637,0.29796 0.17581,0 0.36063,-0.0629 0.52742,0 0.11792,0.0444 0.15252,0.23514 0.26371,0.29795 0.0803,0.0453 0.67237,0 0.79113,0 0.52743,0 1.05484,0 1.58225,0 0.14087,0 1.24308,0.0426 1.31856,0 0.11112,-0.0629 0.14576,-0.25352 0.2637,-0.29795 0.16678,-0.0629 0.35161,0 0.52743,0 0.0879,0 0.18506,0.0444 0.2637,0 0.11126,-0.0629 0.15252,-0.23512 0.26371,-0.29796 0.0785,-0.0444 0.18509,0.0445 0.26371,0 0.11125,-0.0628 0.15251,-0.23511 0.2637,-0.29793 0.0785,-0.0444 0.18509,0.0444 0.26371,0 0.11125,-0.0629 0.15253,-0.23513 0.26371,-0.29795 0.0785,-0.0444 0.1851,0.0444 0.26373,0 0.11125,-0.0628 0.1525,-0.23511 0.26369,-0.29794 0.0785,-0.0444 0.1851,0.0444 0.26371,0 0.22238,-0.12559 0.30504,-0.47027 0.52743,-0.5959 0.0785,-0.0444 0.18507,0.0445 0.26371,0 0.11125,-0.0628 0.1525,-0.23512 0.26369,-0.29794 0.0785,-0.0444 0.18511,0.0444 0.26372,0 0.31645,-0.17876 0.47468,-0.71508 0.79112,-0.89383 0.0785,-0.0444 0.1851,0.0444 0.26372,0 0.11125,-0.0628 0.15253,-0.23513 0.26371,-0.29794 0.0787,-0.0444 0.18509,0.0444 0.2637,0 0.22238,-0.12559 0.30505,-0.47028 0.52743,-0.5959 0.0785,-0.0444 0.1758,0 0.2637,0 0.17581,-0.0993 0.36389,-0.17476 0.52743,-0.29793 0.22225,-0.16742 0.89369,-1.13112 1.05482,-1.19178 0.16681,-0.0629 0.36065,0.0628 0.52743,0 0.11792,-0.0444 0.15252,-0.23514 0.26371,-0.29796 0.0787,-0.0444 0.18507,0.0444 0.26371,0 0.11113,-0.0629 0.15252,-0.23513 0.26371,-0.29793 0.0787,-0.0444 0.18032,0.0314 0.26371,0 0.18648,-0.0702 0.34094,-0.22773 0.52741,-0.29795 0.0835,-0.0314 0.18509,0.0444 0.26372,0 0.22238,-0.12559 0.30503,-0.47027 0.5274,-0.59589 0.0785,-0.0444 0.17583,0 0.26372,0 0.52742,0 1.05485,0 1.58226,0 0.0879,0 0.20156,-0.0702 0.26371,0 0.0621,0.0702 -0.0621,0.22771 0,0.29794 0.13185,0.14898 0.65927,-0.14897 0.79111,0 0.0621,0.0702 -0.0621,0.22771 0,0.29795 0.0721,0.0816 0.91178,-0.0808 1.05484,0 0.11125,0.0629 0.15253,0.23513 0.26373,0.29795 0.0693,0.0394 0.91692,0 1.05483,0 0.0879,0 0.20155,0.0702 0.2637,0 0.0621,-0.0702 -0.0621,-0.22773 0,-0.29795 0.0621,-0.0702 0.18509,0.0444 0.26371,0 0.11113,-0.0629 0.15252,-0.23514 0.26371,-0.29795 0.0785,-0.0444 0.1851,0.0444 0.26371,0 0.22238,-0.12559 0.29155,-0.50706 0.52743,-0.59589 0.16677,-0.0629 0.36063,0.0629 0.52741,0 0.11792,-0.0444 0.17581,-0.19863 0.26371,-0.29794 0.0879,-0.0993 0.19476,-0.18107 0.26372,-0.29794 0.10903,-0.18479 0.15466,-0.41112 0.2637,-0.5959 0.2587,-0.43842 0.79615,-0.75336 1.05484,-1.19178 0.10903,-0.18478 0.15468,-0.41112 0.26371,-0.59589 0.069,-0.1169 0.20812,-0.17232 0.2637,-0.29795 0.0393,-0.0888 -0.0393,-0.20912 0,-0.29794 0.0556,-0.12559 0.17582,-0.19863 0.26371,-0.29795 0.20598,-0.23271 0.63944,-0.63673 0.79113,-0.89384 0.12051,-0.20421 0.40691,-0.98754 0.52741,-1.19177 0.069,-0.11691 0.19476,-0.18108 0.26372,-0.29796 0.10891,-0.18477 0.15468,-0.41111 0.26371,-0.59588 0.069,-0.11691 0.19476,-0.18107 0.2637,-0.29793 0.10916,-0.18479 0.15469,-0.41114 0.26372,-0.59591 0.16004,-0.27122 0.67425,-0.62975 0.79112,-0.89382 0.0393,-0.0888 -0.0278,-0.20374 0,-0.29795 0.0621,-0.21069 0.20156,-0.38521 0.26372,-0.59589 0.0556,-0.18844 -0.0785,-0.41823 0,-0.59589 0.0556,-0.12559 0.20811,-0.17233 0.26371,-0.29794 0.0394,-0.0888 0,-0.19864 0,-0.29795 0,-0.0993 0,-0.19862 0,-0.29795 0,-0.49657 0,-0.99314 0,-1.48972 0,-0.21302 0.0449,-1.63515 0,-1.78767 -0.0393,-0.13325 -0.20812,-0.17232 -0.26371,-0.29794 -0.0393,-0.0888 0.0278,-0.20373 0,-0.29795 -0.0621,-0.21067 -0.20156,-0.38521 -0.26372,-0.5959 -0.0278,-0.0942 0.0393,-0.20909 0,-0.29793 -0.0556,-0.12559 -0.22439,-0.16471 -0.2637,-0.29796 -0.0556,-0.18843 0,-0.39726 0,-0.59588 0,-0.0993 0.0393,-0.20911 0,-0.29795 -0.0556,-0.12559 -0.20812,-0.17232 -0.26371,-0.29794 -0.0393,-0.0888 0.0393,-0.20911 0,-0.29794 -0.0556,-0.12559 -0.20811,-0.17233 -0.26371,-0.29795 -0.0393,-0.0888 0,-0.19864 0,-0.29795 -0.0879,-0.19862 -0.15467,-0.41111 -0.26372,-0.59588 -0.0689,-0.11691 -0.19475,-0.1811 -0.2637,-0.29793 -0.10903,-0.1848 -0.15468,-0.41114 -0.26371,-0.59591 -0.0689,-0.11691 -0.19474,-0.18108 -0.26372,-0.29794 -0.88812,-1.50516 -0.002,-0.006 -0.2637,-0.89383 -0.0621,-0.21069 -0.15468,-0.41112 -0.26371,-0.5959 -0.0731,-0.12393 -0.96051,-1.13851 -1.05484,-1.19179 -0.0785,-0.0444 -0.18509,0.0444 -0.2637,0 -0.11125,-0.0629 -0.15252,-0.23513 -0.26371,-0.29794 -0.0785,-0.0444 -0.18509,0.0444 -0.26372,0 -0.11125,-0.0629 -0.15251,-0.23513 -0.2637,-0.29794 -0.16852,-0.0952 -0.84257,0.0799 -1.05484,0 -0.18647,-0.0702 -0.34094,-0.22772 -0.52741,-0.29795 -0.16679,-0.0629 -0.35162,0 -0.52743,0 -0.35161,0 -0.70322,0 -1.05484,0 -0.0968,0 -1.04423,-0.0115 -1.05482,0 -0.35162,0.39727 0.43951,0.29795 -0.26371,0.29795 -0.12434,0 -1.30661,0.0135 -1.31857,0 -0.0621,-0.0702 0.0621,-0.22772 0,-0.29795 -0.1243,-0.14046 -0.40309,0.14046 -0.52741,0 -0.0621,-0.0702 0.0621,-0.22771 0,-0.29794 -0.12431,-0.14045 -0.40311,0.14045 -0.52741,0 -0.0621,-0.0702 0.0621,-0.22772 0,-0.29794 -0.0621,-0.0702 -0.18508,0.0444 -0.26371,0 -0.11113,-0.0629 -0.15253,-0.23514 -0.2637,-0.29796 -0.0785,-0.0444 -0.20158,0.0702 -0.26371,0 -0.0621,-0.0702 0.0621,-0.2277 0,-0.29794 -0.0621,-0.0702 -0.20157,0.0702 -0.26372,0 -0.0621,-0.0702 0.0393,-0.20912 0,-0.29794 -0.0556,-0.12559 -0.2081,-0.17232 -0.2637,-0.29794 -0.0394,-0.0888 0.0621,-0.22772 0,-0.29795 -0.0621,-0.0702 -0.20155,0.0702 -0.26372,0 -0.0621,-0.0702 0.0394,-0.20911 0,-0.29795 -0.0556,-0.12559 -0.20812,-0.17231 -0.26372,-0.29794 -0.0785,-0.17766 0.12433,-0.45544 0,-0.5959 -0.0621,-0.0702 -0.20154,0.0702 -0.2637,0 -0.0621,-0.0702 0.0393,-0.20911 0,-0.29793 -0.0556,-0.12559 -0.20811,-0.17233 -0.2637,-0.29795 -0.0394,-0.0888 0,-0.19864 0,-0.29796 0,-0.19861 0.0556,-0.40745 0,-0.59588 -0.0394,-0.13325 -0.20811,-0.17233 -0.26372,-0.29795 -0.10557,-0.23834 0.10557,-0.65548 0,-0.89382 -0.0556,-0.12559 -0.20812,-0.17232 -0.26371,-0.29795 -0.0295,-0.0667 0,-1.12098 0,-1.19178 0,-0.6952 0,-1.3904 0,-2.08562 0,-0.59588 0,-1.19179 0,-1.78767 0,-0.0993 0,-0.19863 0,-0.29795 0,-0.0993 -0.0393,-0.20911 0,-0.29793 0.0556,-0.12559 0.22439,-0.16471 0.26371,-0.29796 0.0835,-0.28266 0,-0.59588 0,-0.89383 0,-0.49656 0,-0.99315 0,-1.48972 0,-0.0993 0.0621,-0.22772 0,-0.29795 -0.0621,-0.0702 -0.20155,0.0702 -0.26371,0 -0.1243,-0.14045 0.0785,-0.41823 0,-0.59589 -0.0556,-0.12558 -0.20812,-0.17231 -0.2637,-0.29795 -0.0393,-0.0889 0.0621,-0.22771 0,-0.29794 -0.0621,-0.0702 -0.20156,0.0702 -0.26371,0 -0.12431,-0.14044 0.12432,-0.45544 0,-0.59588 -0.0621,-0.0702 -0.20156,0.0702 -0.26371,0 -0.0621,-0.0702 0.0393,-0.20912 0,-0.29795 -0.0556,-0.12559 -0.20811,-0.17233 -0.26371,-0.29794 -0.0393,-0.0888 0.0394,-0.20913 0,-0.29795 -0.0556,-0.12558 -0.20811,-0.17232 -0.26371,-0.29795 -0.0393,-0.0888 0.0621,-0.22771 0,-0.29793 -0.0621,-0.0702 -0.20156,0.0702 -0.26371,0 -0.0621,-0.0702 0.0393,-0.20914 0,-0.29795 -0.11125,-0.25126 -0.41623,-0.34465 -0.52742,-0.59589 -0.0394,-0.0889 0.0393,-0.20912 0,-0.29795 -0.54875,-1.23998 0.0181,0.31853 -0.52743,-0.29795 -0.0621,-0.0702 0.0393,-0.20912 0,-0.29793 -0.0556,-0.12559 -0.20811,-0.17233 -0.26369,-0.29795 -0.0394,-0.0888 0.0621,-0.22774 0,-0.29795 -0.0621,-0.0702 -0.20155,0.0702 -0.26371,0 -0.0621,-0.0702 0.0621,-0.22773 0,-0.29794 -0.0621,-0.0702 -0.20156,0.0702 -0.26372,0 -0.0621,-0.0702 0.0621,-0.22773 0,-0.29795 -0.0621,-0.0702 -0.20156,0.0702 -0.2637,0 -0.0621,-0.0702 0.0393,-0.20913 0,-0.29794 -0.11125,-0.25125 -0.41624,-0.34465 -0.52743,-0.59589 -0.0394,-0.0889 0.0393,-0.20913 0,-0.29795 -0.15822,-0.35753 -0.63291,-0.53631 -0.79113,-0.89384 -0.0393,-0.0888 0.0621,-0.22771 0,-0.29794 -0.54562,-0.61646 0.0214,0.94203 -0.52741,-0.29795 -0.18188,-0.41097 0.31937,-0.2665 -0.26371,-0.59589 -0.0785,-0.0444 -0.18509,0.0444 -0.26372,0 -0.11125,-0.0629 -0.1525,-0.23512 -0.26369,-0.29795 -0.0787,-0.0444 -0.1851,0.0444 -0.26371,0 -0.87461,-0.98815 0.24862,0.14046 -0.52743,-0.29794 -0.11125,-0.0628 -0.15252,-0.23513 -0.26371,-0.29794 -0.0786,-0.0445 -0.20155,0.0702 -0.26369,0 -0.0621,-0.0702 0.0621,-0.22772 0,-0.29796 -0.12433,-0.14044 -0.37018,0.0888 -0.52744,0 -0.11125,-0.0628 -0.15252,-0.23511 -0.26371,-0.29794 -0.15724,-0.0888 -0.40311,0.14045 -0.52741,0 -0.0621,-0.0702 0.0621,-0.2277 0,-0.29794 -0.0721,-0.0816 -0.91178,0.0808 -1.05484,0 -0.11125,-0.0628 -0.15253,-0.23513 -0.2637,-0.29795 -0.15725,-0.0888 -0.40311,0.14045 -0.52743,0 -0.0621,-0.0702 0.0621,-0.22772 0,-0.29793 -0.12431,-0.14046 -0.4031,0.14043 -0.52741,0 -0.0621,-0.0702 0.0621,-0.22774 0,-0.29796 -0.12433,-0.14044 -0.40312,0.14046 -0.52743,0 -0.0621,-0.0702 0.0621,-0.22771 0,-0.29793 -0.1243,-0.14045 -0.40309,0.14044 -0.5274,0 -0.0621,-0.0702 0.0621,-0.22772 0,-0.29795 -0.13187,-0.14897 -0.65928,0.14898 -0.79114,0 -0.0621,-0.0702 0.0621,-0.22773 0,-0.29795 -0.0111,-0.0115 -0.958,0 -1.05484,0 -0.92277,0 -0.94713,-0.0353 -2.10967,-0.29793 z"
       id="path5604"
       inkscape:connector-curvature="0" />
    <path
       inkscape:connector-curvature="0"
       id="path5614"
       d="m 246.43097,250.89174 c 0.35632,-0.16137 0.56657,-0.15907 0.89946,-0.15907 0.05,0 0.11458,0.0375 0.14991,0 0.0353,-0.0375 -0.0354,-0.12158 0,-0.15907 0.005,-0.005 0.41337,0 0.44973,0 0.89946,0 1.79891,0 2.69837,0 0.34979,0 0.69958,0 1.04937,0 0.05,0 0.0999,0 0.14991,0 0.05,0 0.10522,-0.0237 0.1499,0 0.0632,0.0335 0.0867,0.12553 0.14992,0.15907 0.0894,0.0474 0.21043,-0.0474 0.29981,0 0.0632,0.0335 0.0867,0.12554 0.14992,0.15907 0.0447,0.0237 0.1025,-0.0167 0.14991,0 0.106,0.0375 0.19381,0.12158 0.29982,0.15908 0.0474,0.0167 0.10521,-0.0237 0.14991,0 0.12641,0.067 0.1734,0.25108 0.29982,0.31814 0.0447,0.0237 0.10521,-0.0237 0.14991,0 0.33146,0.17586 0.0465,0.0987 0.14991,0.31815 0.0632,0.13414 0.25512,0.17587 0.29982,0.31815 0.0316,0.10061 -0.0316,0.21754 0,0.31815 0.0447,0.14227 0.2366,0.184 0.29982,0.31814 0.0223,0.0474 -0.0158,0.10877 0,0.15908 0.0353,0.11247 0.11457,0.20566 0.1499,0.31814 0.0158,0.0503 -0.0224,0.11165 0,0.15907 0.0633,0.13414 0.23662,0.184 0.29983,0.31815 0.0223,0.0474 -0.0354,0.12158 0,0.15907 0.0353,0.0375 0.11456,-0.0375 0.1499,0 0.0353,0.0375 -0.0223,0.11166 0,0.15907 0.0316,0.067 0.11831,0.092 0.14991,0.15908 0.0223,0.0474 -0.0353,0.12158 0,0.15907 0.0353,0.0375 0.11458,-0.0375 0.14991,0 0.0998,0.1059 -0.0998,0.21225 0,0.31815 0.0353,0.0375 0.11457,-0.0375 0.14991,0 0,0.4242 -0.05,-0.053 0.14991,0.15907 0.0354,0.0375 -0.0353,0.12158 0,0.15908 0.0354,0.0375 0.10521,-0.0237 0.14991,0 0.0632,0.0335 0.0867,0.12553 0.14991,0.15907 0.0894,0.0474 0.22915,-0.075 0.29982,0 0.0353,0.0375 -0.0354,0.12158 0,0.15908 0.0464,0.0492 0.70313,-0.0492 0.74955,0 0.0354,0.0375 -0.0354,0.12157 0,0.15907 0.0707,0.075 0.21043,-0.0474 0.29981,0 0.0632,0.0335 0.0867,0.12553 0.14992,0.15906 0.0894,0.0474 0.21043,-0.0474 0.29981,0 0.0632,0.0335 0.0867,0.12554 0.14991,0.15909 0.0894,0.0474 0.22915,-0.075 0.29982,0 0.0354,0.0375 -0.0447,0.13535 0,0.15907 0.11993,0.0636 0.3298,-0.0636 0.44973,0 0.0632,0.0335 0.0867,0.12553 0.14991,0.15906 0.0447,0.0237 0.11458,-0.0375 0.14991,0 0.0354,0.0375 -0.0353,0.12159 0,0.15909 0.0707,0.075 0.22916,-0.075 0.29983,0 0.0353,0.0375 -0.0354,0.12157 0,0.15906 0.0353,0.0375 0.11457,-0.0375 0.14991,0 0.0353,0.0375 -0.0224,0.11165 0,0.15908 0.0316,0.067 0.11829,0.092 0.14991,0.15907 0.0223,0.0474 -0.0354,0.12158 0,0.15907 0.0354,0.0375 0.11457,-0.0375 0.1499,0 0.0353,0.0375 -0.0354,0.12158 0,0.15908 0.0353,0.0375 0.0999,0 0.14991,0 0,0.053 -0.0223,0.11164 0,0.15907 0.0316,0.0671 0.11831,0.092 0.14991,0.15908 0.0223,0.0474 -0.0354,0.12157 0,0.15907 0.0353,0.0375 0.11457,-0.0375 0.14991,0 0.0707,0.075 -0.0707,0.24316 0,0.31815 0.0353,0.0375 0.11457,-0.0375 0.14991,0 0.075,0.0795 -0.075,0.39768 0,0.47721 0.0354,0.0375 0.11457,-0.0375 0.14991,0 0.0353,0.0375 0,0.10605 0,0.15908 0,0.053 0,0.10604 0,0.15908 0,0.53023 0,1.06048 0,1.59072 0,0.075 0.007,0.78816 0,0.79537 -0.0354,0.0375 -0.11458,-0.0375 -0.14991,0 -0.0354,0.0375 0.0223,0.11165 0,0.15907 -0.0316,0.067 -0.1183,0.092 -0.14991,0.15908 -0.0518,0.10988 0.0526,0.73953 0,0.79536 -0.0354,0.0375 -0.11458,-0.0375 -0.14991,0 -0.0354,0.0375 0,0.10605 0,0.15907 0,0.31815 0,0.6363 0,0.95445 0,0.053 0,0.10605 0,0.15907 0,0.053 -0.0224,0.11165 0,0.15908 0.49719,0.52757 -0.0707,-0.14999 0.14991,0.31813 0.0632,0.13415 0.23661,0.18402 0.29982,0.31815 0.0223,0.0474 -0.0223,0.11166 0,0.15907 0.0899,0.19089 0.35978,0.28634 0.44973,0.47723 0.0223,0.0474 -0.0354,0.12157 0,0.15907 0.0353,0.0375 0.11457,-0.0375 0.14991,0 0.0354,0.0375 -0.0223,0.11164 0,0.15907 0.0316,0.067 0.11831,0.092 0.14991,0.15908 0.0223,0.0474 -0.0223,0.11164 0,0.15907 0.31194,0.66203 -0.0104,-0.17006 0.29982,0.15907 0.0353,0.0375 -0.0223,0.11165 0,0.15908 0.0632,0.13414 0.23661,0.184 0.29982,0.31815 0.0223,0.0474 -0.0158,0.10876 0,0.15907 0.0354,0.11248 0.11457,0.20566 0.14991,0.31814 0.0158,0.0503 -0.0223,0.11164 0,0.15907 0.0316,0.0671 0.1183,0.092 0.14991,0.15909 0.0223,0.0474 -0.0223,0.11164 0,0.15906 0.0632,0.13414 0.25512,0.17587 0.29981,0.31815 0.0316,0.10061 -0.0316,0.21753 0,0.31814 0.0223,0.0711 0.11831,0.092 0.14991,0.15908 0.0223,0.0474 -0.0158,0.10877 0,0.15907 0.0353,0.11249 0.11458,0.20567 0.14991,0.31815 0.0158,0.0503 -0.0223,0.11165 0,0.15907 0.0316,0.067 0.11831,0.092 0.14991,0.15908 0.0224,0.0474 0,0.10604 0,0.15907 0,0.10604 -0.0316,0.21754 0,0.31815 0.0224,0.0711 0.11831,0.092 0.14991,0.15906 0.0447,0.0948 -0.0447,0.2233 0,0.31816 0.0316,0.067 0.11831,0.092 0.14991,0.15906 0.0223,0.0474 0,0.10606 0,0.15908 0,0.053 0,0.10605 0,0.15907 0,0.1445 -0.0324,1.01025 0,1.11352 0.0223,0.0711 0.12757,0.0879 0.14991,0.15907 0.0229,0.0728 0,0.70658 0,0.79536 0,0.4242 0,0.84839 0,1.27259 0,0.0386 0.005,0.4721 0,0.47722 -0.0354,0.0375 -0.11457,-0.0375 -0.14991,0 -0.0353,0.0375 0.0223,0.11165 0,0.15908 -0.34122,0.36206 -0.0396,-0.0329 -0.14991,0.31814 -0.36195,1.15224 0.0432,-0.25079 -0.29982,0.47722 -0.06,0.12726 0.06,0.34996 0,0.47722 -0.0316,0.067 -0.1183,0.092 -0.14991,0.15907 -0.0447,0.0948 0.0707,0.24316 0,0.31815 -0.0354,0.0375 -0.11457,-0.0375 -0.14991,0 -0.075,0.0795 0.075,0.39768 0,0.47722 -0.0353,0.0375 -0.11457,-0.0375 -0.14991,0 -0.0353,0.0375 0.0223,0.11165 0,0.15908 -0.0316,0.067 -0.1183,0.092 -0.1499,0.15907 -0.0223,0.0474 0.0223,0.11164 0,0.15906 -0.0316,0.067 -0.11831,0.092 -0.14991,0.15909 -0.0223,0.0474 0.0223,0.11164 0,0.15907 -0.0316,0.067 -0.12757,0.0879 -0.14991,0.15907 -0.0316,0.10061 0.0316,0.21754 0,0.31814 -0.0338,0.10773 -0.39248,0.35572 -0.44973,0.47722 -0.0223,0.0474 0.0223,0.11165 0,0.15908 -0.0316,0.067 -0.11831,0.092 -0.14991,0.15907 -0.0223,0.0474 0,0.10605 0,0.15908 -0.05,0.10605 -0.088,0.21949 -0.14991,0.31814 -0.0784,0.12479 -0.25513,0.17587 -0.29982,0.31815 -0.0316,0.1006 0.0316,0.21754 0,0.31815 -0.0447,0.14228 -0.25513,0.17586 -0.29982,0.31815 -0.0316,0.1006 0.0316,0.21753 0,0.31813 -0.0447,0.14229 -0.23661,0.18401 -0.29982,0.31815 -0.0224,0.0474 0.0223,0.11165 0,0.15908 -0.0899,0.19088 -0.35978,0.28633 -0.44973,0.47722 -0.0223,0.0474 0.0353,0.12158 0,0.15907 -0.0707,0.075 -0.22915,-0.075 -0.29981,0 -0.0354,0.0375 0.0353,0.12158 0,0.15908 -0.0354,0.0375 -0.1,0 -0.14991,0 -0.05,0 -0.1,0 -0.14991,0 -0.29983,0 -0.59965,0 -0.89947,0 -0.05,0 -0.0999,0 -0.14991,0 -0.05,0 -0.10521,0.0237 -0.14991,0 -0.0632,-0.0335 -0.0867,-0.12555 -0.14991,-0.15908 -0.0447,-0.0237 -0.11457,0.0375 -0.14991,0 -0.0353,-0.0375 0,-0.10605 0,-0.15907 -0.05,-0.053 -0.0911,-0.11748 -0.1499,-0.15908 -0.093,-0.0657 -0.20685,-0.0933 -0.29982,-0.15907 -0.13646,-0.0965 -0.31686,-0.40672 -0.44973,-0.47722 -0.0447,-0.0237 -0.11457,0.0375 -0.14991,0 -0.0353,-0.0375 0,-0.10604 0,-0.15908 -0.05,-0.10604 -0.0709,-0.2343 -0.14991,-0.31813 -0.0353,-0.0375 -0.10521,0.0237 -0.14991,0 -0.0632,-0.0335 -0.0999,-0.10606 -0.14991,-0.15908 -0.05,-0.053 -0.0999,-0.10605 -0.14991,-0.15907 -0.0789,-0.0837 -0.4097,-0.39227 -0.44973,-0.47722 -0.0223,-0.0474 0,-0.10605 0,-0.15908 -0.05,-0.053 -0.1183,-0.092 -0.14991,-0.15907 -0.0223,-0.0474 0.0353,-0.12158 0,-0.15907 -0.0353,-0.0375 -0.11458,0.0375 -0.14991,0 -0.0353,-0.0375 0.0157,-0.10878 0,-0.15908 -0.0353,-0.11248 -0.11458,-0.20566 -0.14991,-0.31815 -0.0157,-0.0503 0.0223,-0.11164 0,-0.15907 -0.0316,-0.067 -0.1183,-0.092 -0.1499,-0.15907 -0.0447,-0.0948 0.0707,-0.24316 0,-0.31814 -0.0354,-0.0375 -0.11459,0.0375 -0.14992,0 -0.0354,-0.0375 0.0223,-0.11166 0,-0.15908 -0.0316,-0.067 -0.1183,-0.092 -0.14991,-0.15907 -0.0224,-0.0474 0.0353,-0.12158 0,-0.15907 -0.0354,-0.0375 -0.11457,0.0375 -0.1499,0 -0.0354,-0.0375 0.0353,-0.12159 0,-0.15909 -0.0707,-0.075 -0.22916,0.075 -0.29982,0 -0.0354,-0.0375 0.0353,-0.12156 0,-0.15906 -0.0354,-0.0375 -0.1,0 -0.14991,0 -0.34979,0 -0.69959,0 -1.04937,0 -0.34979,0 -0.69958,0 -1.04937,0 -0.05,0 -0.0999,0 -0.14991,0 -0.05,0 -0.10522,-0.0237 -0.14991,0 -0.0633,0.0335 -0.0867,0.12553 -0.14991,0.15906 -0.0447,0.0237 -0.0999,0 -0.14991,0 -0.05,0.053 -0.0867,0.12554 -0.14991,0.15909 -0.0894,0.0474 -0.21042,-0.0474 -0.29982,0 -0.12641,0.067 -0.1734,0.25107 -0.29982,0.31814 -0.0447,0.0237 -0.10521,-0.0237 -0.14991,0 -0.12641,0.067 -0.1734,0.25108 -0.29981,0.31814 -0.0447,0.0237 -0.10522,-0.0237 -0.14992,0 -0.12642,0.067 -0.17339,0.25108 -0.29981,0.31815 -0.0447,0.0237 -0.11458,-0.0375 -0.14992,0 -0.0353,0.0375 0.0223,0.11166 0,0.15907 -0.0316,0.0671 -0.1183,0.092 -0.1499,0.15908 -0.0223,0.0474 0.0354,0.12158 0,0.15907 -0.0353,0.0375 -0.10521,-0.0237 -0.14991,0 -0.62389,0.33102 0.16025,-0.011 -0.14991,0.31815 -0.0353,0.0375 -0.11458,-0.0375 -0.14991,0 -0.0354,0.0375 0.0353,0.12158 0,0.15907 -0.0354,0.0375 -0.11458,-0.0375 -0.14991,0 -0.0354,0.0375 0.0157,0.10878 0,0.15908 -0.0354,0.11247 -0.11458,0.20566 -0.14991,0.31815 -0.0157,0.0503 0.0223,0.11164 0,0.15907 -0.0316,0.067 -0.11831,0.092 -0.14991,0.15907 -0.0224,0.0474 0.0223,0.11165 0,0.15908 -0.34304,0.72801 0.0621,-0.67502 -0.29982,0.47721 -0.0158,0.0503 0.0223,0.11165 0,0.15907 -0.0347,0.0736 -0.51147,0.54274 -0.59964,0.6363 -0.05,0.053 -0.1183,0.092 -0.14991,0.15907 -0.0224,0.0474 0.0353,0.12158 0,0.15908 -0.0354,0.0375 -0.10522,-0.0237 -0.14991,0 -0.12641,0.067 -0.17341,0.25107 -0.29981,0.31814 -0.0447,0.0237 -0.11459,-0.0375 -0.14991,0 -0.0354,0.0375 0.0223,0.11165 0,0.15908 -0.16573,0.35172 -0.0931,0.0493 -0.29983,0.15907 -0.0633,0.0335 -0.0867,0.12553 -0.14991,0.15907 -0.0447,0.0237 -0.1025,-0.0167 -0.14991,0 -0.106,0.0375 -0.19381,0.12157 -0.29982,0.15907 -0.0474,0.0167 -0.10521,-0.0237 -0.14991,0 -0.0632,0.0335 -0.0999,0.10605 -0.14991,0.15908 -0.0999,0 -0.205,-0.0335 -0.29982,0 -0.067,0.0237 -0.0867,0.12553 -0.14991,0.15907 -0.0456,0.0242 -0.38222,0 -0.44973,0 -0.29981,0 -0.59963,0 -0.89945,0 -0.08,0 -0.70664,0.0228 -0.74955,0 -0.0632,-0.0335 -0.0829,-0.13536 -0.14991,-0.15907 -0.0948,-0.0335 -0.19988,0 -0.29982,0 -0.05,0 -0.10521,0.0237 -0.14991,0 -0.0632,-0.0335 -0.0867,-0.12554 -0.1499,-0.15908 -0.0447,-0.0237 -0.10522,0.0237 -0.14992,0 -0.0632,-0.0335 -0.0867,-0.12553 -0.1499,-0.15907 -0.0447,-0.0237 -0.10523,0.0237 -0.14991,0 -0.0632,-0.0335 -0.0867,-0.12554 -0.14991,-0.15907 -0.0447,-0.0237 -0.10523,0.0237 -0.14991,0 -0.0633,-0.0335 -0.0867,-0.12554 -0.14991,-0.15907 -0.0447,-0.0237 -0.10522,0.0237 -0.14991,0 -0.12642,-0.067 -0.17341,-0.25108 -0.29982,-0.31815 -0.0447,-0.0237 -0.10522,0.0237 -0.14991,0 -0.0632,-0.0335 -0.0867,-0.12554 -0.14991,-0.15907 -0.0447,-0.0237 -0.10522,0.0237 -0.14991,0 -0.17989,-0.0954 -0.26984,-0.38179 -0.44974,-0.47723 -0.0447,-0.0237 -0.10521,0.0237 -0.14991,0 -0.0632,-0.0335 -0.0867,-0.12554 -0.1499,-0.15907 -0.0447,-0.0237 -0.10522,0.0237 -0.14991,0 -0.12641,-0.067 -0.1734,-0.25107 -0.29982,-0.31815 -0.0447,-0.0237 -0.0999,0 -0.14991,0 -0.0999,-0.053 -0.20685,-0.0933 -0.29982,-0.15907 -0.12635,-0.0893 -0.50804,-0.60389 -0.59964,-0.63629 -0.0948,-0.0335 -0.205,0.0335 -0.29982,0 -0.067,-0.0237 -0.0867,-0.12554 -0.14991,-0.15907 -0.0447,-0.0237 -0.10521,0.0237 -0.14991,0 -0.0632,-0.0335 -0.0867,-0.12554 -0.1499,-0.15907 -0.0447,-0.0237 -0.10251,0.0168 -0.14992,0 -0.106,-0.0375 -0.19381,-0.12158 -0.29981,-0.15908 -0.0474,-0.0168 -0.10522,0.0237 -0.14992,0 -0.12641,-0.0671 -0.17339,-0.25108 -0.29981,-0.31815 -0.0447,-0.0237 -0.0999,0 -0.14991,0 -0.29982,0 -0.59964,0 -0.89946,0 -0.05,0 -0.11458,-0.0375 -0.14991,0 -0.0354,0.0375 0.0353,0.12158 0,0.15908 -0.075,0.0795 -0.37477,-0.0795 -0.44972,0 -0.0354,0.0375 0.0353,0.12158 0,0.15907 -0.041,0.0435 -0.51832,-0.0431 -0.59964,0 -0.0632,0.0335 -0.0867,0.12554 -0.14991,0.15908 -0.0394,0.0209 -0.52125,0 -0.59965,0 -0.05,0 -0.11457,0.0375 -0.14991,0 -0.0354,-0.0375 0.0354,-0.12158 0,-0.15908 -0.0354,-0.0375 -0.10521,0.0237 -0.14991,0 -0.0632,-0.0335 -0.0867,-0.12554 -0.14991,-0.15907 -0.0447,-0.0237 -0.10521,0.0237 -0.14991,0 -0.12641,-0.0671 -0.16574,-0.27072 -0.29982,-0.31815 -0.0948,-0.0335 -0.205,0.0335 -0.29982,0 -0.067,-0.0237 -0.0999,-0.10605 -0.1499,-0.15907 -0.05,-0.053 -0.11072,-0.0966 -0.14992,-0.15908 -0.0619,-0.0986 -0.088,-0.21949 -0.1499,-0.31815 -0.14706,-0.23407 -0.45259,-0.40222 -0.59964,-0.63628 -0.0619,-0.0986 -0.088,-0.2195 -0.14991,-0.31815 -0.0392,-0.0624 -0.11831,-0.092 -0.14991,-0.15907 -0.0223,-0.0474 0.0223,-0.11166 0,-0.15909 -0.0316,-0.067 -0.0999,-0.10604 -0.14991,-0.15906 -0.11709,-0.12425 -0.3635,-0.33996 -0.44973,-0.47722 -0.0685,-0.10904 -0.23132,-0.52726 -0.29982,-0.6363 -0.0392,-0.0624 -0.11071,-0.0966 -0.14991,-0.15907 -0.0619,-0.0986 -0.088,-0.21949 -0.14991,-0.31815 -0.0392,-0.0624 -0.1107,-0.0966 -0.1499,-0.15907 -0.062,-0.0986 -0.088,-0.21949 -0.14992,-0.31815 -0.091,-0.1448 -0.38329,-0.33622 -0.44972,-0.47721 -0.0224,-0.0474 0.0157,-0.10878 0,-0.15908 -0.0354,-0.11248 -0.11458,-0.20566 -0.14991,-0.31814 -0.0316,-0.10061 0.0447,-0.2233 0,-0.31815 -0.0316,-0.067 -0.11831,-0.092 -0.14991,-0.15907 -0.0224,-0.0474 0,-0.10606 0,-0.15908 0,-0.053 0,-0.10605 0,-0.15907 0,-0.26513 0,-0.53024 0,-0.79536 0,-0.11373 -0.0255,-0.87302 0,-0.95444 0.0223,-0.0711 0.11831,-0.092 0.14991,-0.15908 0.0223,-0.0474 -0.0158,-0.10877 0,-0.15907 0.0353,-0.11249 0.11457,-0.20566 0.14991,-0.31815 0.0157,-0.0503 -0.0224,-0.11164 0,-0.15907 0.0316,-0.067 0.12755,-0.0879 0.14991,-0.15908 0.0316,-0.1006 0,-0.21209 0,-0.31815 0,-0.053 -0.0224,-0.11164 0,-0.15906 0.0316,-0.0671 0.1183,-0.092 0.14991,-0.15908 0.0223,-0.0474 -0.0223,-0.11165 0,-0.15908 0.0316,-0.067 0.1183,-0.092 0.1499,-0.15906 0.0223,-0.0474 0,-0.10605 0,-0.15908 0.05,-0.10605 0.088,-0.21949 0.14992,-0.31814 0.0392,-0.0624 0.1107,-0.0966 0.1499,-0.15908 0.062,-0.0986 0.088,-0.21949 0.14991,-0.31814 0.0392,-0.0624 0.11072,-0.0966 0.14991,-0.15908 0.50488,-0.80361 9.4e-4,-0.004 0.14991,-0.47722 0.0353,-0.11248 0.088,-0.2195 0.14991,-0.31815 0.0416,-0.0661 0.54602,-0.60784 0.59964,-0.63629 0.0447,-0.0237 0.10521,0.0237 0.14991,0 0.0632,-0.0335 0.0867,-0.12553 0.14991,-0.15907 0.0447,-0.0237 0.10521,0.0237 0.14991,0 0.0632,-0.0335 0.0867,-0.12554 0.14991,-0.15907 0.0958,-0.0508 0.47898,0.0427 0.59964,0 0.106,-0.0375 0.19382,-0.12159 0.29981,-0.15907 0.0948,-0.0335 0.19989,0 0.29982,0 0.19989,0 0.39977,0 0.59964,0 0.0551,0 0.59361,-0.006 0.59965,0 0.19987,0.21209 -0.24986,0.15907 0.14991,0.15907 0.0707,0 0.74275,0.007 0.74955,0 0.0353,-0.0375 -0.0354,-0.12159 0,-0.15907 0.0707,-0.075 0.22914,0.075 0.29981,0 0.0354,-0.0375 -0.0354,-0.12158 0,-0.15908 0.0707,-0.075 0.22915,0.075 0.29982,0 0.0353,-0.0375 -0.0354,-0.12158 0,-0.15907 0.0353,-0.0375 0.10521,0.0237 0.14991,0 0.0633,-0.0335 0.0867,-0.12554 0.14991,-0.15908 0.0447,-0.0237 0.11457,0.0375 0.14991,0 0.0354,-0.0375 -0.0354,-0.12157 0,-0.15907 0.0354,-0.0375 0.11457,0.0375 0.14991,0 0.0353,-0.0375 -0.0223,-0.11164 0,-0.15907 0.0316,-0.067 0.11831,-0.092 0.14991,-0.15908 0.0223,-0.0474 -0.0354,-0.12158 0,-0.15907 0.0353,-0.0375 0.11457,0.0375 0.14991,0 0.0353,-0.0375 -0.0223,-0.11165 0,-0.15907 0.0316,-0.067 0.11831,-0.092 0.14991,-0.15908 0.0447,-0.0948 -0.0707,-0.24316 0,-0.31815 0.0353,-0.0375 0.11457,0.0375 0.14991,0 0.0354,-0.0375 -0.0223,-0.11164 0,-0.15907 0.0316,-0.067 0.1183,-0.092 0.1499,-0.15906 0.0223,-0.0474 0,-0.10606 0,-0.15909 0,-0.10604 -0.0316,-0.21753 0,-0.31813 0.0223,-0.0711 0.11831,-0.092 0.14992,-0.15908 0.06,-0.12726 -0.06,-0.34996 0,-0.47722 0.0316,-0.067 0.1183,-0.092 0.1499,-0.15907 0.0168,-0.0356 0,-0.59849 0,-0.6363 0,-0.37117 0,-0.74234 0,-1.11351 0,-0.31814 0,-0.63629 0,-0.95444 0,-0.053 0,-0.10605 0,-0.15907 0,-0.053 0.0223,-0.11165 0,-0.15908 -0.0316,-0.067 -0.12756,-0.0879 -0.1499,-0.15907 -0.0474,-0.15091 0,-0.31815 0,-0.47722 0,-0.26512 0,-0.53025 0,-0.79537 0,-0.053 -0.0353,-0.12157 0,-0.15907 0.0353,-0.0375 0.11457,0.0375 0.1499,0 0.0707,-0.075 -0.0447,-0.2233 0,-0.31814 0.0316,-0.067 0.11831,-0.092 0.14991,-0.15908 0.0223,-0.0474 -0.0354,-0.12158 0,-0.15907 0.0353,-0.0375 0.11459,0.0375 0.14992,0 0.0707,-0.075 -0.0707,-0.24316 0,-0.31815 0.0354,-0.0375 0.11457,0.0375 0.1499,0 0.0354,-0.0375 -0.0223,-0.11164 0,-0.15907 0.0316,-0.067 0.11831,-0.092 0.14991,-0.15908 0.0224,-0.0474 -0.0223,-0.11164 0,-0.15907 0.0316,-0.067 0.11831,-0.092 0.14991,-0.15907 0.0223,-0.0474 -0.0353,-0.12158 0,-0.15908 0.0354,-0.0375 0.11458,0.0375 0.14991,0 0.0354,-0.0375 -0.0223,-0.11164 0,-0.15906 0.0632,-0.13415 0.23662,-0.18402 0.29982,-0.31815 0.0224,-0.0474 -0.0223,-0.11165 0,-0.15907 0.31195,-0.66204 -0.0104,0.17005 0.29982,-0.15909 0.0354,-0.0375 -0.0223,-0.11164 0,-0.15906 0.0316,-0.067 0.11831,-0.092 0.14991,-0.15907 0.0223,-0.0474 -0.0353,-0.12159 0,-0.15908 0.0354,-0.0375 0.11458,0.0375 0.14991,0 0.0354,-0.0375 -0.0354,-0.12158 0,-0.15907 0.0354,-0.0375 0.11458,0.0375 0.14991,0 0.0354,-0.0375 -0.0353,-0.12158 0,-0.15908 0.0354,-0.0375 0.11458,0.0375 0.14991,0 0.0354,-0.0375 -0.0223,-0.11164 0,-0.15907 0.0632,-0.13414 0.23661,-0.184 0.29982,-0.31815 0.0223,-0.0474 -0.0223,-0.11164 0,-0.15907 0.0899,-0.19089 0.35978,-0.28634 0.44972,-0.47722 0.0224,-0.0474 -0.0353,-0.12158 0,-0.15907 0.31018,-0.32913 -0.0122,0.50294 0.29983,-0.15908 0.10339,-0.21941 -0.18155,-0.14228 0.14991,-0.31814 0.0447,-0.0237 0.10522,0.0237 0.14991,0 0.0632,-0.0335 0.0867,-0.12554 0.14991,-0.15907 0.0447,-0.0237 0.10521,0.0237 0.14991,0 0.49719,-0.52758 -0.14134,0.075 0.29982,-0.15908 0.0632,-0.0335 0.0867,-0.12554 0.14991,-0.15907 0.0447,-0.0237 0.11457,0.0375 0.14991,0 0.0353,-0.0375 -0.0354,-0.12158 0,-0.15907 0.0707,-0.075 0.21042,0.0474 0.29982,0 0.0632,-0.0335 0.0867,-0.12554 0.14991,-0.15908 0.0894,-0.0474 0.22915,0.075 0.29982,0 0.0353,-0.0375 -0.0354,-0.12158 0,-0.15907 0.041,-0.0435 0.51831,0.0431 0.59963,0 0.0632,-0.0335 0.0867,-0.12554 0.14991,-0.15908 0.0894,-0.0474 0.22915,0.075 0.29982,0 0.0353,-0.0375 -0.0353,-0.12157 0,-0.15907 0.0707,-0.075 0.22915,0.075 0.29982,0 0.0353,-0.0375 -0.0354,-0.12158 0,-0.15907 0.0707,-0.075 0.22915,0.075 0.29982,0 0.0353,-0.0375 -0.0353,-0.12158 0,-0.15908 0.0707,-0.075 0.22915,0.075 0.29981,0 0.0354,-0.0375 -0.0353,-0.12158 0,-0.15907 0.075,-0.0795 0.37478,0.0795 0.44973,0 0.0354,-0.0375 -0.0353,-0.12158 0,-0.15907 0.006,-0.006 0.54459,0 0.59964,0 0.52456,0 0.53842,-0.0188 1.19928,-0.15908 z"
       style="fill:#008000;fill-opacity:0.5625;stroke:#000000;stroke-width:0.43238574px;stroke-linecap:butt;stroke-linejoin:miter;stroke-opacity:1" />
    <path
       inkscape:connector-curvature="0"
       id="path5618"
       d="m 191.92847,295.20873 c -0.2296,-0.19542 -0.25556,-0.32822 -0.30078,-0.53786 -0.006,-0.0316 0.0266,-0.0789 -0.0204,-0.0944 -0.047,-0.0156 -0.1318,0.0441 -0.1788,0.0282 -0.006,-0.002 -0.0562,-0.2603 -0.061,-0.28321 -0.1222,-0.56643 -0.24436,-1.13285 -0.36654,-1.69928 -0.0476,-0.22026 -0.095,-0.44055 -0.1426,-0.66082 -0.006,-0.0315 -0.014,-0.0629 -0.0204,-0.0944 -0.006,-0.0315 -0.041,-0.062 -0.0204,-0.0944 0.029,-0.0458 0.1292,-0.0772 0.1584,-0.12298 0.0412,-0.0648 -0.082,-0.12398 -0.0408,-0.1888 0.0292,-0.0458 0.1292,-0.0772 0.1582,-0.12295 0.0206,-0.0324 -0.0318,-0.0617 -0.0204,-0.0944 0.0278,-0.0735 0.1104,-0.14392 0.138,-0.21741 0.012,-0.0328 -0.041,-0.062 -0.0204,-0.0944 0.0582,-0.0917 0.2585,-0.15433 0.31666,-0.24599 0.0206,-0.0324 -0.041,-0.062 -0.0204,-0.0944 0.1524,-0.24032 0.1046,-0.047 0.33704,-0.15155 0.1422,-0.064 0.1628,-0.19224 0.3167,-0.24598 0.1088,-0.038 0.24866,-0.0197 0.3574,-0.0571 0.1538,-0.0538 0.1746,-0.18207 0.3167,-0.24599 0.0502,-0.0225 0.1244,-0.009 0.1786,-0.0282 0.1214,-0.0424 0.21548,-0.10911 0.33704,-0.15155 0.0544,-0.0189 0.1286,-0.006 0.1786,-0.0281 0.1422,-0.0639 0.1746,-0.18207 0.31668,-0.24598 0.0502,-0.0225 0.1414,4.4e-4 0.1788,-0.0282 0.0374,-0.029 -0.0578,-0.0654 -0.0204,-0.0944 0.0374,-0.029 0.1286,-0.006 0.1788,-0.0282 0.0712,-0.0319 0.0874,-0.091 0.1582,-0.12295 0.0502,-0.0225 0.1414,4.3e-4 0.1788,-0.0282 0.0374,-0.029 -0.0578,-0.0654 -0.0204,-0.0944 0.1054,-0.0818 0.25198,0.0248 0.3574,-0.0571 0.0374,-0.029 -0.0578,-0.0655 -0.0204,-0.0944 0.47654,-0.0762 -0.0526,0.0409 0.1582,-0.12294 0.0374,-0.029 0.1414,4.3e-4 0.1788,-0.0282 0.0374,-0.029 -0.041,-0.062 -0.0204,-0.0944 0.029,-0.0458 0.1292,-0.0772 0.1582,-0.12295 0.0412,-0.0648 -0.1152,-0.13085 -0.0408,-0.1888 0.0374,-0.029 0.1414,4.4e-4 0.1786,-0.0282 0.049,-0.0381 -0.1508,-0.43394 -0.1018,-0.47202 0.0374,-0.029 0.1414,4.3e-4 0.1786,-0.0282 0.0746,-0.058 -0.0818,-0.124 -0.0408,-0.18879 0.029,-0.0458 0.1292,-0.0772 0.1582,-0.12295 0.0412,-0.0648 -0.082,-0.12398 -0.0408,-0.18881 0.029,-0.0459 0.1292,-0.0771 0.1584,-0.12297 0.0412,-0.0648 -0.1152,-0.13087 -0.0408,-0.18882 0.0374,-0.029 0.158,0.004 0.1786,-0.0281 0.0552,-0.0869 -0.1162,-0.19626 -0.061,-0.28322 0.0292,-0.0459 0.1292,-0.0772 0.1582,-0.12295 0.0206,-0.0323 -0.0578,-0.0654 -0.0204,-0.0944 0.0374,-0.029 0.1414,4.3e-4 0.1788,-0.0282 0.0746,-0.058 -0.1152,-0.13086 -0.0408,-0.1888 0.0374,-0.029 0.1414,4.3e-4 0.1786,-0.0282 0.0374,-0.029 -0.0578,-0.0654 -0.0204,-0.0944 0.0374,-0.029 0.1286,-0.006 0.1786,-0.0282 0.0712,-0.0319 0.0874,-0.091 0.1584,-0.12298 0.0502,-0.0226 0.1414,4.4e-4 0.1786,-0.0281 0.0374,-0.029 -0.0578,-0.0654 -0.0204,-0.0944 0.0374,-0.029 0.1414,4.3e-4 0.1788,-0.0282 0.0374,-0.029 -0.014,-0.063 -0.0204,-0.0944 0.0594,-0.009 0.1286,-0.006 0.1786,-0.0282 0.071,-0.032 0.0874,-0.091 0.1584,-0.12298 0.0502,-0.0225 0.1414,4.3e-4 0.1786,-0.0282 0.0374,-0.029 -0.0578,-0.0655 -0.0204,-0.0944 0.0746,-0.058 0.28278,7.7e-4 0.3574,-0.0571 0.0374,-0.029 -0.0578,-0.0654 -0.0204,-0.0944 0.0794,-0.0614 0.45694,-0.0243 0.53612,-0.0858 0.0374,-0.029 -0.0578,-0.0654 -0.0204,-0.0944 0.0374,-0.029 0.1192,-0.0188 0.1788,-0.0282 0.0594,-0.009 0.1192,-0.0188 0.1786,-0.0282 0.59568,-0.0953 1.19136,-0.19058 1.78704,-0.28587 0.0842,-0.013 0.88438,-0.14646 0.89354,-0.14294 0.047,0.0155 -0.0266,0.0788 0.0204,0.0944 0.047,0.0156 0.1224,-0.034 0.1788,-0.0282 0.0796,0.008 0.1194,0.0579 0.1992,0.0657 0.1304,0.0128 0.82364,-0.16604 0.8935,-0.14293 0.047,0.0156 -0.0266,0.0789 0.0204,0.0944 0.047,0.0156 0.1192,-0.0188 0.1786,-0.0282 0.35742,-0.0571 0.71482,-0.11437 1.07224,-0.1715 0.0594,-0.009 0.1192,-0.0188 0.1786,-0.0282 0.0594,-0.009 0.1286,-0.006 0.1788,-0.0282 0.52516,-0.40792 -0.1588,0.0714 0.33704,-0.15155 0.1422,-0.0639 0.1746,-0.18207 0.31668,-0.24598 0.0502,-0.0225 0.1286,-0.006 0.1788,-0.0282 0.20224,-0.091 0.27282,-0.27802 0.47502,-0.36897 0.0502,-0.0225 0.1414,4.4e-4 0.1786,-0.0282 0.0374,-0.029 -0.0578,-0.0654 -0.0204,-0.0944 0.0374,-0.029 0.1286,-0.006 0.1788,-0.0282 0.0712,-0.032 0.0874,-0.091 0.1582,-0.12295 0.0502,-0.0225 0.1286,-0.006 0.1788,-0.0282 0.70136,-0.31541 -0.1898,0.0364 0.138,-0.21739 0.0374,-0.029 0.1286,-0.006 0.1786,-0.0282 0.1422,-0.0639 0.1746,-0.18207 0.31668,-0.24598 0.0502,-0.0225 0.1244,-0.009 0.1788,-0.0282 0.1214,-0.0424 0.21548,-0.10911 0.33704,-0.15156 0.0544,-0.019 0.1286,-0.006 0.1788,-0.0282 0.071,-0.032 0.0874,-0.091 0.1582,-0.12294 0.0504,-0.0225 0.1286,-0.006 0.1786,-0.0282 0.1422,-0.0639 0.1628,-0.19225 0.3167,-0.24599 0.1088,-0.038 0.24868,-0.0197 0.3574,-0.0571 0.0768,-0.0267 0.0874,-0.091 0.1584,-0.12298 0.0502,-0.0226 0.1242,-0.009 0.1786,-0.0282 0.1214,-0.0424 0.21548,-0.10921 0.33704,-0.15155 0.0544,-0.019 0.1286,-0.006 0.1786,-0.0282 0.0712,-0.0319 0.0874,-0.091 0.1584,-0.12298 0.0502,-0.0225 0.1192,-0.0188 0.1786,-0.0282 0.1192,-0.0188 0.24866,-0.0197 0.3574,-0.0571 0.077,-0.0268 0.0874,-0.091 0.1582,-0.12295 0.1006,-0.0453 0.25692,-0.012 0.35742,-0.0571 0.071,-0.0319 0.0874,-0.091 0.1582,-0.12294 0.0504,-0.0225 0.1192,-0.0188 0.1786,-0.0282 0.0594,-0.009 0.1192,-0.0188 0.1788,-0.0282 0.1622,-0.0264 1.13932,-0.1611 1.25092,-0.20007 0.0768,-0.0267 0.0814,-0.096 0.1584,-0.12298 0.0788,-0.0275 0.79378,-0.12693 0.89354,-0.14293 0.47654,-0.0762 0.95308,-0.15243 1.42962,-0.22864 0.0434,-0.007 0.52974,-0.0877 0.5361,-0.0858 0.047,0.0156 -0.0266,0.0789 0.0204,0.0944 0.047,0.0155 0.1224,-0.034 0.1788,-0.0282 0.45308,0.14981 -0.0316,0.0308 0.37776,0.0372 1.34358,0.0209 -0.28762,0.0179 0.57682,0.10305 0.1512,0.0148 0.38502,-0.1006 0.53612,-0.0857 0.0796,0.008 0.1194,0.0579 0.199,0.0657 0.1126,0.011 0.26358,-0.0882 0.35742,-0.0571 0.047,0.0155 -0.0266,0.0789 0.0204,0.0944 0.0998,0.0329 0.43658,-0.11863 0.53612,-0.0857 0.047,0.0155 -0.0266,0.0789 0.0204,0.0944 0.047,0.0156 0.1224,-0.034 0.1786,-0.0282 0.0796,0.008 0.1194,0.0579 0.199,0.0658 0.0564,0.005 0.1224,-0.034 0.1786,-0.0282 0.0796,0.008 0.1194,0.0579 0.199,0.0659 0.0564,0.005 0.1224,-0.0341 0.1788,-0.0282 0.0796,0.008 0.116,0.0646 0.1992,0.0657 0.1174,0.002 0.24012,-0.059 0.3574,-0.0571 0.1258,0.002 0.45292,0.18323 0.59722,0.19745 0.0564,0.005 0.1224,-0.0341 0.1786,-0.0282 0.0796,0.008 0.1194,0.0579 0.1992,0.0657 0.0564,0.006 0.1192,-0.0188 0.1786,-0.0282 0.1258,0.0124 0.25854,0.016 0.37776,0.0372 0.1508,0.0269 0.23216,0.12907 0.39814,0.13164 0.1174,0.002 0.24008,-0.0591 0.3574,-0.0571 0.166,0.002 0.23216,0.12906 0.39814,0.13162 0.1174,0.002 0.2401,-0.0591 0.3574,-0.0571 0.166,0.003 0.23886,0.11594 0.39816,0.13164 0.0564,0.005 0.1224,-0.0341 0.1788,-0.0282 0.22666,0.0224 0.37054,0.17511 0.59718,0.19745 0.0564,0.005 0.1318,-0.0441 0.1786,-0.0282 0.0938,0.031 -0.053,0.15776 0.0408,0.1888 0.047,0.0156 0.1318,-0.0441 0.1788,-0.0282 0.047,0.0155 0.014,0.0629 0.0204,0.0944 0.006,0.0315 0.014,0.0629 0.0204,0.0944 0.0408,0.18881 0.0814,0.37762 0.1222,0.56642 0.006,0.0315 0.014,0.0629 0.0204,0.0944 0.006,0.0316 0.041,0.062 0.0204,0.0944 -0.0292,0.0458 -0.1292,0.0772 -0.1584,0.12298 -0.0206,0.0324 0.0578,0.0654 0.0204,0.0944 -0.0374,0.029 -0.1192,0.0188 -0.1786,0.0282 -0.0526,0.041 -0.1196,0.0784 -0.1582,0.12294 -0.0614,0.0704 -0.0768,0.14704 -0.138,0.2174 -0.0898,0.10323 -0.41386,0.27261 -0.47502,0.36896 -0.0206,0.0324 0.0578,0.0655 0.0204,0.0944 -0.0374,0.029 -0.1192,0.0188 -0.1788,0.0282 -0.1124,0.0505 -0.2536,0.0867 -0.33704,0.15156 -0.0374,0.029 0.041,0.062 0.0204,0.0944 -0.029,0.0458 -0.1056,0.082 -0.1584,0.12297 -0.0528,0.041 -0.1056,0.082 -0.1582,0.12295 -0.0834,0.0648 -0.38502,0.3285 -0.47502,0.36898 -0.0502,0.0225 -0.1192,0.0188 -0.1786,0.0282 -0.0526,0.041 -0.0874,0.091 -0.1582,0.12295 -0.0502,0.0225 -0.1414,-4.4e-4 -0.1788,0.0282 -0.0374,0.029 0.0578,0.0654 0.0204,0.0944 -0.0374,0.029 -0.1242,0.009 -0.1786,0.0282 -0.1214,0.0424 -0.2155,0.10911 -0.33704,0.15155 -0.0544,0.0189 -0.1286,0.006 -0.1786,0.0282 -0.071,0.032 -0.0874,0.091 -0.1584,0.12298 -0.1006,0.0453 -0.28276,-7.8e-4 -0.3574,0.0571 -0.0374,0.029 0.0578,0.0655 0.0204,0.0944 -0.0374,0.029 -0.1286,0.006 -0.1786,0.0282 -0.071,0.032 -0.0874,0.091 -0.1584,0.12298 -0.0502,0.0225 -0.1414,-4.4e-4 -0.1788,0.0282 -0.0374,0.029 0.0578,0.0655 0.0204,0.0944 -0.0374,0.029 -0.1414,-4.4e-4 -0.1786,0.0281 -0.0746,0.058 0.1152,0.13087 0.0408,0.18881 -0.0374,0.029 -0.1414,-4.4e-4 -0.1786,0.0281 -0.0374,0.029 0.014,0.0629 0.0204,0.0944 0.0476,0.22027 0.095,0.44055 0.1426,0.66083 0.0476,0.22027 0.095,0.44056 0.1426,0.66082 0.006,0.0315 0.014,0.0629 0.0204,0.0944 0.006,0.0315 -0.012,0.0705 0.0204,0.0944 0.0464,0.0338 0.1528,0.0321 0.199,0.0658 0.0328,0.0239 0.014,0.0629 0.0204,0.0944 0.0662,0.022 0.1528,0.0321 0.199,0.0658 0.0654,0.0478 -0.0248,0.14105 0.0408,0.1888 0.0926,0.0676 0.3056,0.0641 0.39814,0.13163 0.0328,0.0239 -0.012,0.0705 0.0204,0.0944 0.0926,0.0676 0.3056,0.0641 0.39812,0.13162 0.0328,0.0239 -0.012,0.0705 0.0204,0.0944 0.0926,0.0676 0.30562,0.0641 0.39814,0.13163 0.0328,0.0239 -0.0266,0.079 0.0204,0.0944 0.047,0.0156 0.1226,-0.034 0.1786,-0.0282 0.0796,0.008 0.1194,0.0579 0.199,0.0658 0.0564,0.005 0.1318,-0.0441 0.1788,-0.0282 0.047,0.0155 -0.012,0.0705 0.0204,0.0944 0.4566,0.33341 -0.0356,-0.0987 0.37776,0.0372 0.047,0.0156 -0.0266,0.0789 0.0204,0.0944 0.047,0.0156 0.1318,-0.0441 0.1786,-0.0281 0.047,0.0155 -0.0266,0.0789 0.0204,0.0944 0.047,0.0156 0.1202,-0.0296 0.1786,-0.0282 0.1312,0.002 0.2466,0.0351 0.37778,0.0372 0.0586,7.1e-4 0.1226,-0.034 0.1786,-0.0282 0.0796,0.008 0.1194,0.0579 0.199,0.0658 0.0564,0.005 0.1226,-0.034 0.1788,-0.0282 0.86444,0.0852 -0.76676,0.0822 0.57684,0.10305 0.0586,7.1e-4 0.1224,-0.034 0.1786,-0.0282 0.0874,0.009 0.67918,0.22457 0.79626,0.26327 0.0662,0.022 0.1194,0.0579 0.199,0.0658 0.0564,0.005 0.1318,-0.0441 0.1788,-0.0282 0.047,0.0155 -0.012,0.0705 0.0204,0.0944 0.0926,0.0676 0.3056,0.0641 0.39812,0.13164 0.0328,0.0239 -0.0266,0.0789 0.0204,0.0944 0.047,0.0155 0.1224,-0.034 0.1788,-0.0282 0.41764,0.0411 0.0682,0.0497 0.21934,0.16024 0.0464,0.0338 0.1528,0.0321 0.199,0.0659 0.0328,0.0239 -0.004,0.0674 0.0204,0.0944 0.0566,0.0599 0.163,0.1002 0.21932,0.16024 0.0244,0.027 -0.012,0.0705 0.0204,0.0944 0.0464,0.0338 0.1328,0.044 0.1992,0.0657 0.014,0.0629 -0.01,0.13514 0.0408,0.18879 0.0358,0.038 0.1528,0.0321 0.1992,0.0657 0.0332,0.0244 0.052,0.24069 0.0612,0.2832 0.0408,0.18881 0.0814,0.37762 0.1222,0.56642 0.01,0.0505 0.1214,0.44093 0.1018,0.47203 -0.0292,0.0458 -0.141,0.0764 -0.1584,0.12298 -0.0246,0.0657 0.0272,0.12586 0.0408,0.1888 0.006,0.0315 0.041,0.062 0.0204,0.0944 -0.029,0.0459 -0.1292,0.0772 -0.1584,0.12298 -0.0206,0.0324 0.041,0.062 0.0204,0.0944 -0.029,0.0458 -0.1292,0.0772 -0.1582,0.12295 -0.0206,0.0324 0.041,0.062 0.0204,0.0944 -0.029,0.0458 -0.1292,0.0772 -0.1582,0.12295 -0.0206,0.0324 0.041,0.062 0.0204,0.0944 -0.0292,0.0458 -0.1292,0.0772 -0.1582,0.12294 -0.0206,0.0324 0.041,0.062 0.0204,0.0944 -0.0582,0.0916 -0.2585,0.15432 -0.3167,0.24599 -0.0206,0.0324 0.041,0.062 0.0204,0.0944 -0.029,0.0458 -0.1292,0.0772 -0.1582,0.12295 -0.0206,0.0325 0.041,0.062 0.0204,0.0944 -0.0828,0.13043 -0.39226,0.23853 -0.47502,0.36897 -0.0206,0.0324 0.041,0.062 0.0204,0.0944 -0.029,0.0459 -0.1292,0.0772 -0.1582,0.12295 -0.0206,0.0324 0.041,0.062 0.0204,0.0944 -0.0582,0.0917 -0.2585,0.15433 -0.31668,0.24598 -0.0206,0.0324 0.014,0.0629 0.0204,0.0944 -0.0458,0.0725 -0.0768,0.14703 -0.1378,0.21736 -0.0832,0.0956 -0.6094,0.42846 -0.63336,0.49197 -0.0246,0.0657 0.0656,0.12306 0.0408,0.18881 -0.018,0.0465 -0.1292,0.0772 -0.1582,0.12295 -0.0206,0.0324 0.041,0.062 0.0204,0.0944 -0.0292,0.0459 -0.1292,0.0771 -0.1582,0.12295 -0.0206,0.0324 0.0318,0.0617 0.0204,0.0944 -0.0278,0.0734 -0.1104,0.14392 -0.1378,0.21738 -0.012,0.0328 0.041,0.062 0.0204,0.0944 -0.0582,0.0916 -0.25852,0.15432 -0.3167,0.24599 -0.0206,0.0324 0.014,0.0629 0.0204,0.0944 0.0408,0.1888 0.0814,0.37763 0.1222,0.56642 0.006,0.0316 -0.0266,0.0789 0.0204,0.0944 0.047,0.0156 0.1318,-0.0441 0.1786,-0.0281 0.0994,0.0328 -0.0386,0.25033 0.0612,0.28319 0.047,0.0156 0.1318,-0.0441 0.1788,-0.0282 0.0546,0.018 0.0218,0.33417 0.0814,0.37763 0.0462,0.0337 0.1528,0.0321 0.199,0.0657 0.0288,0.0211 0.0708,0.32826 0.0814,0.37762 0.006,0.0316 0.0578,0.0655 0.0204,0.0944 -0.0374,0.029 -0.1414,-4.3e-4 -0.1786,0.0282 -0.0374,0.029 0.041,0.062 0.0204,0.0944 -0.029,0.0458 -0.1292,0.0772 -0.1584,0.12298 -0.0206,0.0324 0.041,0.062 0.0204,0.0944 -0.0582,0.0916 -0.2816,0.15303 -0.31668,0.24599 -0.0248,0.0658 0.0654,0.12309 0.0408,0.18879 -0.018,0.0466 -0.1056,0.082 -0.1584,0.12298 -0.0528,0.041 -0.0936,0.087 -0.1582,0.12295 -0.1024,0.0568 -0.23464,0.0949 -0.33706,0.15155 -0.24298,0.1347 -0.3904,0.35728 -0.63336,0.49196 -0.1024,0.0568 -0.23464,0.0949 -0.33706,0.15156 -0.0646,0.0359 -0.0874,0.091 -0.1584,0.12298 -0.0502,0.0225 -0.1286,0.006 -0.1786,0.0281 -0.0712,0.0319 -0.1056,0.082 -0.1582,0.12295 -0.1236,0.096 -0.33252,0.28999 -0.475,0.36897 -0.1132,0.0627 -0.5609,0.24043 -0.6741,0.30316 -0.0646,0.0358 -0.0936,0.087 -0.1582,0.12295 -0.1024,0.0568 -0.23462,0.0949 -0.33704,0.15154 -0.0646,0.0359 -0.0936,0.087 -0.1582,0.12295 -0.1024,0.0568 -0.23462,0.0949 -0.33704,0.15155 -0.1504,0.0832 -0.32566,0.3018 -0.47502,0.36897 -0.0504,0.0225 -0.1244,0.009 -0.1788,0.0282 -0.1214,0.0424 -0.21548,0.10911 -0.33704,0.15155 -0.1088,0.0381 -0.25692,0.012 -0.35742,0.0571 -0.071,0.032 -0.0874,0.091 -0.1582,0.12295 -0.0504,0.0225 -0.1192,0.0188 -0.1786,0.0282 -0.0594,0.009 -0.1192,0.0188 -0.1788,0.0282 -0.29784,0.0476 -0.59566,0.0953 -0.89352,0.14293 -0.1278,0.0207 -0.97726,0.17302 -1.07224,0.17151 -0.083,-10e-4 -0.1194,-0.0579 -0.199,-0.0659 -0.0564,-0.005 -0.1202,0.0296 -0.1788,0.0282 -0.1312,-0.002 -0.2466,-0.0351 -0.37776,-0.0372 -0.0586,-7.1e-4 -0.1224,0.034 -0.1786,0.0282 -0.0796,-0.008 -0.116,-0.0645 -0.199,-0.0659 -0.1172,-0.002 -0.23828,0.0382 -0.35742,0.0571 -0.0594,0.009 -0.1224,0.034 -0.1786,0.0282 -0.0796,-0.008 -0.1194,-0.0579 -0.199,-0.0658 -0.0564,-0.005 -0.1224,0.034 -0.1788,0.0282 -0.0796,-0.008 -0.1194,-0.0579 -0.199,-0.0659 -0.0564,-0.005 -0.1192,0.0188 -0.1788,0.0282 -0.126,-0.0124 -0.25852,-0.016 -0.37776,-0.0372 -0.0756,-0.0135 -0.1236,-0.0523 -0.1992,-0.0657 -0.1192,-0.0213 -0.25854,-0.016 -0.37776,-0.0372 -0.0754,-0.0135 -0.1236,-0.0523 -0.1992,-0.0657 -0.97136,-0.17354 -0.004,-1.5e-4 -0.55644,-0.009 -0.1314,-0.002 -0.25854,-0.016 -0.37778,-0.0372 -0.08,-0.0142 -0.75702,-0.23463 -0.79628,-0.26327 -0.0328,-0.0239 0.012,-0.0705 -0.0204,-0.0944 -0.0462,-0.0337 -0.1528,-0.032 -0.199,-0.0658 -0.0328,-0.0239 0.012,-0.0705 -0.0204,-0.0944 -0.0464,-0.0337 -0.1528,-0.0321 -0.199,-0.0658 -0.07,-0.0512 -0.018,-0.30922 -0.0814,-0.37763 -0.0566,-0.0599 -0.163,-0.1002 -0.21954,-0.16022 -0.0506,-0.0538 -0.0272,-0.12586 -0.0408,-0.1888 -0.0272,-0.12586 -0.0544,-0.25173 -0.0814,-0.37762 -0.008,-0.0346 -0.0886,-0.37255 -0.0814,-0.37762 0.21114,-0.16399 0.21276,0.12874 0.1584,-0.12298 -0.01,-0.0444 -0.093,-0.469 -0.1018,-0.47202 -0.047,-0.0156 -0.1318,0.0441 -0.1788,0.0282 -0.0938,-0.031 0.053,-0.15776 -0.0408,-0.1888 -0.047,-0.0156 -0.1318,0.0441 -0.1786,0.0282 -0.0938,-0.031 0.053,-0.15778 -0.0408,-0.1888 -0.047,-0.0155 -0.1318,0.0441 -0.1786,0.0282 -0.047,-0.0156 0.012,-0.0705 -0.0204,-0.0944 -0.0464,-0.0338 -0.1528,-0.0321 -0.199,-0.0658 -0.0328,-0.0239 0.0266,-0.079 -0.0204,-0.0944 -0.047,-0.0155 -0.1318,0.0441 -0.1786,0.0282 -0.047,-0.0156 0.0266,-0.0789 -0.0204,-0.0944 -0.047,-0.0155 -0.1224,0.034 -0.1788,0.0282 -0.0796,-0.008 -0.1194,-0.0579 -0.199,-0.0659 -0.0564,-0.005 -0.1318,0.0441 -0.1788,0.0282 -0.047,-0.0154 0.0266,-0.0789 -0.0204,-0.0944 -0.047,-0.0156 -0.1224,0.034 -0.1786,0.0282 -0.0796,-0.008 -0.1194,-0.0579 -0.199,-0.0658 -0.1128,-0.0111 -0.26356,0.0882 -0.35742,0.0571 -0.047,-0.0156 0.0266,-0.079 -0.0204,-0.0944 -0.047,-0.0156 -0.1224,0.034 -0.1788,0.0282 -0.0796,-0.008 -0.1196,-0.0579 -0.199,-0.0659 -0.0564,-0.005 -0.1192,0.0188 -0.1788,0.0282 -0.1192,0.0188 -0.2401,0.059 -0.3574,0.0571 -0.083,-0.001 -0.1194,-0.0579 -0.1992,-0.0657 -0.1512,-0.0148 -0.385,0.1006 -0.5361,0.0858 -0.0796,-0.008 -0.1196,-0.0579 -0.1992,-0.0657 -0.0422,-0.004 -0.67232,0.10751 -0.71482,0.11437 -0.41694,0.0667 -0.83394,0.13334 -1.2509,0.20007 -0.3574,0.0571 -0.71482,0.11436 -1.07224,0.1715 -0.0594,0.009 -0.1192,0.0188 -0.1786,0.0282 -0.0594,0.009 -0.1286,0.006 -0.1786,0.0281 -0.0712,0.0319 -0.0814,0.096 -0.1582,0.12295 -0.163,0.057 -0.35742,0.0571 -0.5361,0.0858 -0.29786,0.0476 -0.5957,0.0953 -0.89354,0.14294 -0.0594,0.009 -0.1318,0.0441 -0.1786,0.0281 -0.047,-0.0156 0.0266,-0.0788 -0.0204,-0.0944 -0.0938,-0.031 -0.24476,0.0684 -0.35742,0.0571 -0.0796,-0.008 -0.1194,-0.0579 -0.199,-0.0658 -0.0564,-0.005 -0.1318,0.0441 -0.1786,0.0282 -0.047,-0.0156 0.0266,-0.079 -0.0204,-0.0944 -0.0938,-0.031 -0.26356,0.0882 -0.3574,0.0571 -0.047,-0.0156 0.0266,-0.0788 -0.0204,-0.0944 -0.047,-0.0155 -0.1224,0.034 -0.1786,0.0281 -0.0796,-0.008 -0.1194,-0.0579 -0.1992,-0.0657 -0.0564,-0.005 -0.1224,0.034 -0.1786,0.0282 -0.0796,-0.008 -0.1194,-0.0579 -0.1992,-0.0657 -0.0564,-0.005 -0.1318,0.0441 -0.1786,0.0282 -0.047,-0.0156 0.0266,-0.079 -0.0204,-0.0944 -0.047,-0.0156 -0.1224,0.034 -0.1786,0.0282 -0.1594,-0.0156 -0.23884,-0.11593 -0.39814,-0.13163 -0.0564,-0.005 -0.1224,0.034 -0.1786,0.0282 -0.7861,-0.0775 0.1922,-0.0246 -0.21954,-0.1602 -0.047,-0.0155 -0.1224,0.034 -0.1786,0.0281 -0.0796,-0.008 -0.1194,-0.0579 -0.199,-0.0659 -0.0564,-0.005 -0.1318,0.0441 -0.1786,0.0282 -0.047,-0.0155 0.0266,-0.0788 -0.0204,-0.0944 -0.047,-0.0156 -0.1318,0.0441 -0.1786,0.0282 -0.047,-0.0156 0.0266,-0.0789 -0.0204,-0.0944 -0.047,-0.0155 -0.1318,0.0441 -0.1788,0.0282 -0.047,-0.0156 0.0266,-0.079 -0.0204,-0.0944 -0.047,-0.0155 -0.1226,0.034 -0.1786,0.0282 -0.1594,-0.0157 -0.23886,-0.11594 -0.39812,-0.13164 -0.0564,-0.005 -0.1226,0.034 -0.1788,0.0282 -0.22666,-0.0223 -0.37054,-0.1751 -0.59722,-0.19743 -0.0564,-0.005 -0.1318,0.0441 -0.1786,0.0282 -0.41186,-0.13618 0.56668,-0.0826 -0.21954,-0.16021 -0.26054,-0.0257 -0.1352,0.1399 -0.37776,-0.0372 -0.0328,-0.0239 0.012,-0.0705 -0.0204,-0.0944 -0.0462,-0.0339 -0.1528,-0.0321 -0.199,-0.0659 -0.0328,-0.0239 0.012,-0.0705 -0.0204,-0.0944 -0.66024,-0.2183 0.1034,0.0756 -0.21934,-0.16024 -0.0464,-0.0338 -0.1528,-0.0321 -0.1992,-0.0657 -0.0328,-0.0238 0.0266,-0.0788 -0.0204,-0.0944 -0.047,-0.0155 -0.1318,0.0441 -0.1786,0.0281 -0.0938,-0.031 0.0248,-0.14106 -0.0408,-0.1888 -0.0462,-0.0337 -0.1528,-0.0321 -0.1992,-0.0657 -0.0654,-0.0478 0.053,-0.15778 -0.0408,-0.1888 -0.047,-0.0155 -0.1318,0.0441 -0.1786,0.0282 -0.0544,-0.0181 -0.0218,-0.33417 -0.0814,-0.37762 -0.0464,-0.0338 -0.1528,-0.0321 -0.199,-0.0659 -0.0654,-0.0478 0.053,-0.15776 -0.0408,-0.1888 -0.047,-0.0156 -0.1318,0.0441 -0.1788,0.0282 -0.0938,-0.031 0.053,-0.15777 -0.0408,-0.1888 -0.047,-0.0156 -0.1318,0.0441 -0.1786,0.0282 -0.0938,-0.031 0.053,-0.15777 -0.0408,-0.18882 -0.047,-0.0154 -0.1318,0.0441 -0.1786,0.0282 -0.0938,-0.031 0.053,-0.15776 -0.0408,-0.18879 -0.047,-0.0155 -0.1318,0.0441 -0.1786,0.0282 -0.0994,-0.0328 0.0386,-0.25033 -0.0612,-0.28319 -0.047,-0.0155 -0.1318,0.0441 -0.1786,0.0281 -0.008,-0.003 -0.074,-0.34294 -0.0814,-0.37763 -0.0712,-0.33034 -0.0944,-0.33564 -0.34172,-0.72662 z"
       style="fill:#008000;fill-opacity:0.5817308;stroke:#000000;stroke-width:0.36990216px;stroke-linecap:butt;stroke-linejoin:miter;stroke-opacity:1" />
    <path
       inkscape:connector-curvature="0"
       id="path5614-4"
       d="m 225.11918,214.1023 c 0.2407,-0.16137 0.4526,-0.15907 0.78549,-0.15907 0.05,0 0.14145,0.0375 0.14991,0 0.008,-0.0375 -0.12251,-0.12158 -0.11397,-0.15907 0.001,-0.005 0.41337,0 0.44973,0 0.89946,0 1.79891,0 2.69837,0 0.34979,0 0.69958,0 1.04937,0 0.05,0 0.0999,0 0.14991,0 0.05,0 0.0882,-0.0237 0.1499,0 0.0872,0.0335 0.17664,0.12553 0.26389,0.15907 0.12336,0.0474 0.17647,-0.0474 0.29981,0 0.0872,0.0335 0.17665,0.12554 0.26389,0.15907 0.0617,0.0237 0.0905,-0.0167 0.14991,0 0.13287,0.0375 0.28092,0.12158 0.4138,0.15908 0.0594,0.0167 0.0882,-0.0237 0.14991,0 0.17441,0.067 0.35329,0.25108 0.52776,0.31814 0.0617,0.0237 0.0882,-0.0237 0.14991,0 0.45746,0.17586 0.11721,0.0987 0.37786,0.31815 0.1593,0.13414 0.38112,0.17587 0.52776,0.31815 0.10369,0.10061 0.12427,0.21754 0.22795,0.31815 0.14663,0.14227 0.36843,0.184 0.52776,0.31814 0.0563,0.0474 0.0621,0.10877 0.11398,0.15908 0.11588,0.11247 0.26192,0.20566 0.37784,0.31814 0.0518,0.0503 0.0576,0.11165 0.11397,0.15907 0.15941,0.13414 0.36845,0.184 0.52778,0.31815 0.0563,0.0474 0.0517,0.12158 0.11397,0.15907 0.0622,0.0375 0.0877,-0.0375 0.1499,0 0.0622,0.0375 0.0577,0.11166 0.11397,0.15907 0.0796,0.067 0.18422,0.092 0.26388,0.15908 0.0563,0.0474 0.0518,0.12158 0.11397,0.15907 0.0622,0.0375 0.0877,-0.0375 0.14991,0 0.17568,0.1059 0.0523,0.21225 0.22795,0.31815 0.0622,0.0375 0.0877,-0.0375 0.14991,0 0.30393,0.4242 -0.088,-0.053 0.26388,0.15907 0.0623,0.0375 0.0518,0.12158 0.11398,0.15908 0.0623,0.0375 0.0882,-0.0237 0.14991,0 0.0872,0.0335 0.17664,0.12553 0.26388,0.15907 0.12336,0.0474 0.17541,-0.075 0.29982,0 0.0622,0.0375 0.0517,0.12158 0.11398,0.15908 0.0816,0.0492 0.66787,-0.0492 0.74955,0 0.0623,0.0375 0.0517,0.12157 0.11397,0.15907 0.12443,0.075 0.17646,-0.0474 0.29981,0 0.0872,0.0335 0.17663,0.12553 0.26388,0.15906 0.12336,0.0474 0.17647,-0.0474 0.29981,0 0.0872,0.0335 0.17664,0.12554 0.26389,0.15909 0.12336,0.0474 0.17542,-0.075 0.29982,0 0.0623,0.0375 0.0523,0.13535 0.11397,0.15907 0.1655,0.0636 0.28423,-0.0636 0.44973,0 0.0872,0.0335 0.17664,0.12553 0.26388,0.15906 0.0617,0.0237 0.0877,-0.0375 0.14991,0 0.0623,0.0375 0.0518,0.12159 0.11398,0.15909 0.12444,0.075 0.17542,-0.075 0.29983,0 0.0622,0.0375 0.0517,0.12157 0.11396,0.15906 0.0622,0.0375 0.0877,-0.0375 0.14991,0 0.0622,0.0375 0.0576,0.11165 0.11398,0.15908 0.0796,0.067 0.18421,0.092 0.26388,0.15907 0.0563,0.0474 0.0517,0.12158 0.11397,0.15907 0.0623,0.0375 0.0877,-0.0375 0.1499,0 0.0622,0.0375 0.0517,0.12158 0.11398,0.15908 0.0622,0.0375 0.0999,0 0.14991,0 0.038,0.053 0.0577,0.11164 0.11397,0.15907 0.0797,0.0671 0.18422,0.092 0.26389,0.15908 0.0563,0.0474 0.0517,0.12157 0.11397,0.15907 0.0622,0.0375 0.0877,-0.0375 0.14991,0 0.12443,0.075 0.10351,0.24316 0.22794,0.31815 0.0622,0.0375 0.0877,-0.0375 0.14991,0 0.13196,0.0795 0.20993,0.39768 0.34191,0.47721 0.0623,0.0375 0.0877,-0.0375 0.14991,0 0.0622,0.0375 0.076,0.10605 0.11398,0.15908 0.038,0.053 0.076,0.10604 0.11398,0.15908 0.3799,0.53023 0.75981,1.06048 1.13971,1.59072 0.0537,0.075 0.5717,0.78816 0.56987,0.79537 -0.009,0.0375 -0.14145,-0.0375 -0.14991,0 -0.009,0.0375 0.10229,0.11165 0.11397,0.15907 0.0164,0.067 -0.0524,0.092 -0.0359,0.15908 0.0269,0.10988 0.58245,0.73953 0.56985,0.79536 -0.009,0.0375 -0.14144,-0.0375 -0.14991,0 -0.009,0.0375 0.076,0.10605 0.11397,0.15907 0.22795,0.31815 0.4559,0.6363 0.68385,0.95445 0.038,0.053 0.076,0.10605 0.11397,0.15907 0.038,0.053 0.0576,0.11165 0.11397,0.15908 0.87519,0.52757 -0.17816,-0.14999 0.37785,0.31813 0.15931,0.13415 0.36845,0.18402 0.52776,0.31815 0.0563,0.0474 0.0577,0.11166 0.11397,0.15907 0.22667,0.19089 0.56494,0.28634 0.79166,0.47723 0.0563,0.0474 0.0517,0.12157 0.11397,0.15907 0.0622,0.0375 0.0877,-0.0375 0.14991,0 0.0623,0.0375 0.0577,0.11164 0.11397,0.15907 0.0796,0.067 0.18423,0.092 0.26389,0.15908 0.0563,0.0474 0.0577,0.11164 0.11397,0.15907 0.78627,0.66203 -0.13225,-0.17006 0.41379,0.15907 0.0622,0.0375 0.0577,0.11165 0.11397,0.15908 0.15931,0.13414 0.36845,0.184 0.52777,0.31815 0.0563,0.0474 0.0621,0.10876 0.11397,0.15907 0.11599,0.11248 0.26192,0.20566 0.37785,0.31814 0.0518,0.0503 0.0577,0.11164 0.11397,0.15907 0.0797,0.0671 0.18422,0.092 0.2639,0.15909 0.0563,0.0474 0.0577,0.11164 0.11396,0.15906 0.15931,0.13414 0.38113,0.17587 0.52776,0.31815 0.10368,0.10061 0.12425,0.21753 0.22794,0.31814 0.0732,0.0711 0.18422,0.092 0.26388,0.15908 0.0563,0.0474 0.0621,0.10877 0.11397,0.15907 0.1159,0.11249 0.26194,0.20567 0.37786,0.31815 0.0518,0.0503 0.0577,0.11165 0.11397,0.15907 0.0796,0.067 0.18423,0.092 0.26389,0.15908 0.0564,0.0474 0.076,0.10604 0.11397,0.15907 0.076,0.10604 0.12426,0.21754 0.22795,0.31815 0.0733,0.0711 0.18422,0.092 0.26387,0.15906 0.11262,0.0948 0.11529,0.2233 0.22795,0.31816 0.0796,0.067 0.18423,0.092 0.26388,0.15906 0.0563,0.0474 0.076,0.10606 0.11397,0.15908 0.038,0.053 0.076,0.10605 0.11397,0.15907 0.10354,0.1445 0.69143,1.01025 0.79782,1.11352 0.0732,0.0711 0.19055,0.0879 0.26388,0.15907 0.0751,0.0728 0.50625,0.70658 0.56985,0.79536 0.30393,0.4242 0.60786,0.84839 0.91179,1.27259 0.0276,0.0386 0.34325,0.4721 0.34191,0.47722 -0.009,0.0375 -0.14143,-0.0375 -0.14991,0 -0.008,0.0375 0.1023,0.11165 0.11398,0.15908 -0.0818,0.36206 -0.0632,-0.0329 0.078,0.31814 0.46361,1.15224 -0.13648,-0.25079 0.0421,0.47722 0.0312,0.12726 0.31074,0.34996 0.34192,0.47722 0.0164,0.067 -0.0524,0.092 -0.0359,0.15907 0.0232,0.0948 0.24492,0.24316 0.22795,0.31815 -0.009,0.0375 -0.14144,-0.0375 -0.14991,0 -0.018,0.0795 0.35992,0.39768 0.34191,0.47722 -0.008,0.0375 -0.14144,-0.0375 -0.14991,0 -0.008,0.0375 0.1023,0.11165 0.11398,0.15908 0.0164,0.067 -0.0524,0.092 -0.0359,0.15907 0.0117,0.0474 0.10229,0.11164 0.11396,0.15906 0.0164,0.067 -0.0524,0.092 -0.0359,0.15909 0.0117,0.0474 0.10229,0.11164 0.11397,0.15907 0.0164,0.067 -0.0646,0.0879 -0.0359,0.15907 0.0405,0.10061 0.18746,0.21754 0.22794,0.31814 0.0434,0.10773 -0.13762,0.35572 -0.10781,0.47722 0.0117,0.0474 0.10229,0.11165 0.11397,0.15908 0.0164,0.067 -0.0524,0.092 -0.0359,0.15907 0.0117,0.0474 0.076,0.10605 0.11398,0.15908 0.026,0.10605 0.0693,0.21949 0.078,0.31814 0.011,0.12479 -0.12912,0.17587 -0.0719,0.31815 0.0405,0.1006 0.18746,0.21754 0.22795,0.31815 0.0572,0.14228 -0.12913,0.17586 -0.0719,0.31815 0.0405,0.1006 0.18746,0.21753 0.22794,0.31813 0.0572,0.14229 -0.10478,0.18401 -0.0719,0.31815 0.0116,0.0474 0.1023,0.11165 0.11398,0.15908 0.0469,0.19088 -0.15463,0.28633 -0.10781,0.47722 0.0117,0.0474 0.12241,0.12158 0.11397,0.15907 -0.017,0.075 -0.28289,-0.075 -0.29981,0 -0.009,0.0375 0.12241,0.12158 0.11398,0.15908 -0.009,0.0375 -0.1,0 -0.14991,0 -0.05,0 -0.1,0 -0.14991,0 -0.29983,0 -0.59965,0 -0.89947,0 -0.05,0 -0.0999,0 -0.14991,0 -0.05,0 -0.0882,0.0237 -0.14991,0 -0.0872,-0.0335 -0.17666,-0.12555 -0.26389,-0.15908 -0.0617,-0.0237 -0.0877,0.0375 -0.14991,0 -0.0622,-0.0375 -0.076,-0.10605 -0.11397,-0.15907 -0.088,-0.053 -0.17527,-0.11748 -0.26388,-0.15908 -0.14007,-0.0657 -0.2737,-0.0933 -0.41379,-0.15907 -0.2056,-0.0965 -0.60827,-0.40672 -0.79165,-0.47722 -0.0617,-0.0237 -0.0877,0.0375 -0.14991,0 -0.0622,-0.0375 -0.076,-0.10604 -0.11397,-0.15908 -0.12598,-0.10604 -0.23877,-0.2343 -0.37785,-0.31813 -0.0622,-0.0375 -0.0882,0.0237 -0.14991,0 -0.0872,-0.0335 -0.17589,-0.10606 -0.26388,-0.15908 -0.088,-0.053 -0.17589,-0.10605 -0.26388,-0.15907 -0.13887,-0.0837 -0.69076,-0.39227 -0.79165,-0.47722 -0.0563,-0.0474 -0.076,-0.10605 -0.11398,-0.15908 -0.088,-0.053 -0.18422,-0.092 -0.26388,-0.15907 -0.0563,-0.0474 -0.0518,-0.12158 -0.11397,-0.15907 -0.0622,-0.0375 -0.0877,0.0375 -0.14991,0 -0.0622,-0.0375 -0.0622,-0.10878 -0.11398,-0.15908 -0.11589,-0.11248 -0.26193,-0.20566 -0.37785,-0.31815 -0.0517,-0.0503 -0.0577,-0.11164 -0.11397,-0.15907 -0.0796,-0.067 -0.18422,-0.092 -0.26387,-0.15907 -0.11263,-0.0948 -0.10352,-0.24316 -0.22794,-0.31814 -0.0623,-0.0375 -0.0877,0.0375 -0.14992,0 -0.0623,-0.0375 -0.0577,-0.11166 -0.11398,-0.15908 -0.0796,-0.067 -0.18422,-0.092 -0.26388,-0.15907 -0.0564,-0.0474 -0.0518,-0.12158 -0.11397,-0.15907 -0.0623,-0.0375 -0.0877,0.0375 -0.1499,0 -0.0623,-0.0375 -0.0518,-0.12159 -0.11399,-0.15909 -0.12443,-0.075 -0.17542,0.075 -0.29982,0 -0.0623,-0.0375 -0.0518,-0.12156 -0.11396,-0.15906 -0.0623,-0.0375 -0.1,0 -0.14991,0 -0.34979,0 -0.69959,0 -1.04937,0 -0.34979,0 -0.69958,0 -1.04937,0 -0.05,0 -0.0999,0 -0.14991,0 -0.05,0 -0.1222,-0.0237 -0.14991,0 -0.0393,0.0335 0.003,0.12553 -0.0359,0.15906 -0.0277,0.0237 -0.0999,0 -0.14991,0 -0.012,0.053 0.003,0.12554 -0.0359,0.15909 -0.0554,0.0474 -0.24438,-0.0474 -0.29982,0 -0.0784,0.067 0.006,0.25107 -0.0719,0.31814 -0.0277,0.0237 -0.12219,-0.0237 -0.14991,0 -0.0784,0.067 0.006,0.25108 -0.0719,0.31814 -0.0277,0.0237 -0.1222,-0.0237 -0.14992,0 -0.0784,0.067 0.007,0.25108 -0.0719,0.31815 -0.0277,0.0237 -0.14145,-0.0375 -0.14992,0 -0.008,0.0375 0.1023,0.11166 0.11397,0.15907 0.0165,0.0671 -0.0524,0.092 -0.0359,0.15908 0.0117,0.0474 0.12251,0.12158 0.11397,0.15907 -0.008,0.0375 -0.12219,-0.0237 -0.14991,0 -0.38672,0.33102 0.15237,-0.011 0.078,0.31815 -0.008,0.0375 -0.14145,-0.0375 -0.14991,0 -0.009,0.0375 0.12241,0.12158 0.11397,0.15907 -0.009,0.0375 -0.14145,-0.0375 -0.14991,0 -0.009,0.0375 0.0936,0.10878 0.11398,0.15908 0.0452,0.11247 0.0328,0.20566 0.078,0.31815 0.0203,0.0503 0.10228,0.11164 0.11397,0.15907 0.0164,0.067 -0.0524,0.092 -0.0359,0.15907 0.0116,0.0474 0.10229,0.11165 0.11397,0.15908 0.17857,0.72801 -0.42153,-0.67502 0.0421,0.47721 0.0202,0.0503 0.1023,0.11165 0.11397,0.15907 0.018,0.0736 -0.12261,0.54274 -0.14374,0.6363 -0.012,0.053 -0.0524,0.092 -0.0359,0.15907 0.0116,0.0474 0.12241,0.12158 0.11398,0.15908 -0.009,0.0375 -0.12221,-0.0237 -0.14991,0 -0.0784,0.067 0.006,0.25107 -0.0719,0.31814 -0.0277,0.0237 -0.14146,-0.0375 -0.14991,0 -0.009,0.0375 0.10229,0.11165 0.11397,0.15908 0.0863,0.35172 -0.0578,0.0493 -0.18586,0.15907 -0.0393,0.0335 0.003,0.12553 -0.0359,0.15907 -0.0277,0.0237 -0.11446,-0.0167 -0.14991,0 -0.0791,0.0375 -0.1067,0.12157 -0.18585,0.15907 -0.0354,0.0167 -0.12219,-0.0237 -0.14991,0 -0.0392,0.0335 -0.0239,0.10605 -0.0359,0.15908 -0.0999,0 -0.229,-0.0335 -0.29982,0 -0.05,0.0237 0.003,0.12553 -0.0359,0.15907 -0.0283,0.0242 -0.38222,0 -0.44973,0 -0.29981,0 -0.59963,0 -0.89945,0 -0.08,0 -0.6903,0.0228 -0.74955,0 -0.0872,-0.0335 -0.17988,-0.13536 -0.26388,-0.15907 -0.1188,-0.0335 -0.19988,0 -0.29982,0 -0.05,0 -0.0882,0.0237 -0.14991,0 -0.0872,-0.0335 -0.17665,-0.12554 -0.26388,-0.15908 -0.0617,-0.0237 -0.0882,0.0237 -0.14992,0 -0.0872,-0.0335 -0.17664,-0.12553 -0.26387,-0.15907 -0.0617,-0.0237 -0.0883,0.0237 -0.14991,0 -0.0872,-0.0335 -0.17664,-0.12554 -0.26388,-0.15907 -0.0617,-0.0237 -0.0883,0.0237 -0.14991,0 -0.0873,-0.0335 -0.17664,-0.12554 -0.26388,-0.15907 -0.0617,-0.0237 -0.0882,0.0237 -0.14991,0 -0.17442,-0.067 -0.3533,-0.25108 -0.52776,-0.31815 -0.0617,-0.0237 -0.0882,0.0237 -0.14991,0 -0.0872,-0.0335 -0.17665,-0.12554 -0.26388,-0.15907 -0.0617,-0.0237 -0.0882,0.0237 -0.14991,0 -0.24825,-0.0954 -0.54339,-0.38179 -0.79167,-0.47723 -0.0617,-0.0237 -0.0882,0.0237 -0.14991,0 -0.0872,-0.0335 -0.17665,-0.12554 -0.26387,-0.15907 -0.0617,-0.0237 -0.0882,0.0237 -0.14991,0 -0.17441,-0.067 -0.35329,-0.25107 -0.52777,-0.31815 -0.0617,-0.0237 -0.0999,0 -0.14991,0 -0.13787,-0.053 -0.27369,-0.0933 -0.41379,-0.15907 -0.19033,-0.0893 -0.94071,-0.60389 -1.05552,-0.63629 -0.11881,-0.0335 -0.181,0.0335 -0.29982,0 -0.084,-0.0237 -0.17665,-0.12554 -0.26388,-0.15907 -0.0617,-0.0237 -0.0882,0.0237 -0.14991,0 -0.0872,-0.0335 -0.17665,-0.12554 -0.26387,-0.15907 -0.0617,-0.0237 -0.0905,0.0168 -0.14992,0 -0.13287,-0.0375 -0.28092,-0.12158 -0.41379,-0.15908 -0.0594,-0.0168 -0.0882,0.0237 -0.14992,0 -0.17449,-0.0671 -0.35329,-0.25108 -0.52776,-0.31815 -0.0617,-0.0237 -0.0999,0 -0.14991,0 -0.29982,0 -0.59964,0 -0.89946,0 -0.05,0 -0.14145,-0.0375 -0.14991,0 -0.009,0.0375 0.12241,0.12158 0.11398,0.15908 -0.018,0.0795 -0.43173,-0.0795 -0.44972,0 -0.009,0.0375 0.12241,0.12158 0.11397,0.15907 -0.01,0.0435 -0.5492,-0.0431 -0.59964,0 -0.0392,0.0335 0.003,0.12554 -0.0359,0.15908 -0.0244,0.0209 -0.52125,0 -0.59965,0 -0.05,0 -0.0877,0.0375 -0.14991,0 -0.0623,-0.0375 -0.0517,-0.12158 -0.11398,-0.15908 -0.0623,-0.0375 -0.0882,0.0237 -0.14991,0 -0.0872,-0.0335 -0.17665,-0.12554 -0.26388,-0.15907 -0.0617,-0.0237 -0.0882,0.0237 -0.14991,0 -0.17449,-0.0671 -0.35971,-0.27072 -0.52777,-0.31815 -0.1188,-0.0335 -0.181,0.0335 -0.29982,0 -0.084,-0.0237 -0.17588,-0.10605 -0.26387,-0.15907 -0.088,-0.053 -0.17993,-0.0966 -0.2639,-0.15908 -0.13254,-0.0986 -0.24526,-0.21949 -0.37784,-0.31815 -0.31477,-0.23407 -0.74078,-0.40222 -1.05552,-0.63628 -0.13255,-0.0986 -0.24527,-0.2195 -0.37786,-0.31815 -0.0839,-0.0624 -0.18423,-0.092 -0.26388,-0.15907 -0.0563,-0.0474 -0.0577,-0.11166 -0.11399,-0.15909 -0.0796,-0.067 -0.17587,-0.10604 -0.26387,-0.15906 -0.20611,-0.12425 -0.60707,-0.33996 -0.79165,-0.47722 -0.14662,-0.10904 -0.60909,-0.52726 -0.75571,-0.6363 -0.0839,-0.0624 -0.17992,-0.0966 -0.26388,-0.15907 -0.13255,-0.0986 -0.24526,-0.21949 -0.37786,-0.31815 -0.0839,-0.0624 -0.17991,-0.0966 -0.26387,-0.15907 -0.13264,-0.0986 -0.24526,-0.21949 -0.37787,-0.31815 -0.19474,-0.1448 -0.62418,-0.33622 -0.79163,-0.47721 -0.0564,-0.0474 -0.0622,-0.10878 -0.11398,-0.15908 -0.11598,-0.11248 -0.26193,-0.20566 -0.37785,-0.31814 -0.10368,-0.10061 -0.11528,-0.2233 -0.22794,-0.31815 -0.0796,-0.067 -0.18423,-0.092 -0.26388,-0.15907 -0.0564,-0.0474 -0.076,-0.10606 -0.11398,-0.15908 -0.038,-0.053 -0.076,-0.10605 -0.11397,-0.15907 -0.18996,-0.26513 -0.37991,-0.53024 -0.56986,-0.79536 -0.0815,-0.11373 -0.651,-0.87302 -0.68383,-0.95444 -0.0286,-0.0711 0.0524,-0.092 0.0359,-0.15908 -0.0117,-0.0474 -0.0937,-0.10877 -0.11397,-0.15907 -0.0453,-0.11249 -0.0328,-0.20566 -0.078,-0.31815 -0.0203,-0.0503 -0.10239,-0.11164 -0.11397,-0.15907 -0.0164,-0.067 0.0646,-0.0879 0.0359,-0.15908 -0.0405,-0.1006 -0.15195,-0.21209 -0.22794,-0.31815 -0.038,-0.053 -0.10239,-0.11164 -0.11397,-0.15906 -0.0165,-0.0671 0.0524,-0.092 0.0359,-0.15908 -0.0117,-0.0474 -0.1023,-0.11165 -0.11398,-0.15908 -0.0164,-0.067 0.0524,-0.092 0.0359,-0.15906 -0.0117,-0.0474 -0.076,-0.10605 -0.11398,-0.15908 -0.026,-0.10605 -0.0693,-0.21949 -0.078,-0.31814 -0.006,-0.0624 0.0415,-0.0966 0.0359,-0.15908 -0.009,-0.0986 -0.0693,-0.21949 -0.078,-0.31814 -0.006,-0.0624 0.0415,-0.0966 0.0359,-0.15908 -0.0709,-0.80361 -0.002,-0.004 -0.192,-0.47722 -0.0453,-0.11248 -0.0693,-0.2195 -0.078,-0.31815 -0.006,-0.0661 0.11052,-0.60784 0.14375,-0.63629 0.0277,-0.0237 0.12219,0.0237 0.14991,0 0.0392,-0.0335 -0.003,-0.12553 0.0359,-0.15907 0.0277,-0.0237 0.12219,0.0237 0.14991,0 0.0392,-0.0335 -0.003,-0.12554 0.0359,-0.15907 0.0594,-0.0508 0.50958,0.0427 0.59964,0 0.0791,-0.0375 0.1067,-0.12159 0.18584,-0.15907 0.0708,-0.0335 0.19989,0 0.29982,0 0.19989,0 0.39977,0 0.59964,0 0.0551,0 0.58931,-0.006 0.59965,0 0.35183,0.21209 -0.13589,0.15907 0.26388,0.15907 0.0707,0 0.74777,0.007 0.74955,0 0.008,-0.0375 -0.12252,-0.12159 -0.11397,-0.15907 0.017,-0.075 0.28288,0.075 0.29981,0 0.009,-0.0375 -0.12251,-0.12158 -0.11398,-0.15908 0.017,-0.075 0.28289,0.075 0.29982,0 0.008,-0.0375 -0.12251,-0.12158 -0.11397,-0.15907 0.008,-0.0375 0.12219,0.0237 0.14991,0 0.0393,-0.0335 -0.003,-0.12554 0.0359,-0.15908 0.0277,-0.0237 0.14143,0.0375 0.14991,0 0.009,-0.0375 -0.12251,-0.12157 -0.11397,-0.15907 0.009,-0.0375 0.14143,0.0375 0.14991,0 0.008,-0.0375 -0.10229,-0.11164 -0.11397,-0.15907 -0.0164,-0.067 0.0524,-0.092 0.0359,-0.15908 -0.0117,-0.0474 -0.12251,-0.12158 -0.11397,-0.15907 0.008,-0.0375 0.14144,0.0375 0.14991,0 0.008,-0.0375 -0.1023,-0.11165 -0.11397,-0.15907 -0.0164,-0.067 0.0524,-0.092 0.0359,-0.15908 -0.0232,-0.0948 -0.24492,-0.24316 -0.22795,-0.31815 0.008,-0.0375 0.14144,0.0375 0.14991,0 0.009,-0.0375 -0.10228,-0.11164 -0.11397,-0.15907 -0.0164,-0.067 0.0524,-0.092 0.0359,-0.15906 -0.0117,-0.0474 -0.076,-0.10606 -0.11398,-0.15909 -0.076,-0.10604 -0.18746,-0.21753 -0.22794,-0.31813 -0.0286,-0.0711 0.0524,-0.092 0.036,-0.15908 -0.0312,-0.12726 -0.31074,-0.34996 -0.34192,-0.47722 -0.0164,-0.067 0.0524,-0.092 0.0359,-0.15907 -0.009,-0.0356 -0.42881,-0.59849 -0.4559,-0.6363 -0.26593,-0.37117 -0.53187,-0.74234 -0.7978,-1.11351 -0.22794,-0.31814 -0.45589,-0.63629 -0.68384,-0.95444 -0.038,-0.053 -0.076,-0.10605 -0.11397,-0.15907 -0.038,-0.053 -0.0577,-0.11165 -0.11397,-0.15908 -0.0796,-0.067 -0.19054,-0.0879 -0.26387,-0.15907 -0.15553,-0.15091 -0.22795,-0.31815 -0.34192,-0.47722 -0.18995,-0.26512 -0.37991,-0.53025 -0.56987,-0.79537 -0.038,-0.053 -0.1224,-0.12157 -0.11397,-0.15907 0.008,-0.0375 0.14144,0.0375 0.1499,0 0.017,-0.075 -0.20469,-0.2233 -0.22794,-0.31814 -0.0164,-0.067 0.0524,-0.092 0.0359,-0.15908 -0.0117,-0.0474 -0.12251,-0.12158 -0.11397,-0.15907 0.008,-0.0375 0.14145,0.0375 0.14992,0 0.017,-0.075 -0.24492,-0.24316 -0.22795,-0.31815 0.009,-0.0375 0.14144,0.0375 0.1499,0 0.009,-0.0375 -0.10229,-0.11164 -0.11397,-0.15907 -0.0164,-0.067 0.0524,-0.092 0.0359,-0.15908 -0.0116,-0.0474 -0.10229,-0.11164 -0.11397,-0.15907 -0.0164,-0.067 0.0524,-0.092 0.0359,-0.15907 -0.0117,-0.0474 -0.12241,-0.12158 -0.11398,-0.15908 0.009,-0.0375 0.14145,0.0375 0.14991,0 0.009,-0.0375 -0.10228,-0.11164 -0.11396,-0.15906 -0.0329,-0.13415 0.10477,-0.18402 0.0719,-0.31815 -0.0116,-0.0474 -0.10229,-0.11165 -0.11397,-0.15907 -0.16238,-0.66204 0.11144,0.17005 0.18584,-0.15909 0.009,-0.0375 -0.10229,-0.11164 -0.11396,-0.15906 -0.0164,-0.067 0.0524,-0.092 0.0359,-0.15907 -0.0117,-0.0474 -0.12242,-0.12159 -0.11398,-0.15908 0.009,-0.0375 0.14145,0.0375 0.14991,0 0.009,-0.0375 -0.12251,-0.12158 -0.11397,-0.15907 0.009,-0.0375 0.14145,0.0375 0.14991,0 0.009,-0.0375 -0.12241,-0.12158 -0.11398,-0.15908 0.009,-0.0375 0.14145,0.0375 0.14991,0 0.009,-0.0375 -0.10229,-0.11164 -0.11397,-0.15907 -0.0329,-0.13414 0.10478,-0.184 0.0719,-0.31815 -0.0117,-0.0474 -0.10228,-0.11164 -0.11397,-0.15907 -0.0469,-0.19089 0.15463,-0.28634 0.10781,-0.47722 -0.0116,-0.0474 -0.12241,-0.12158 -0.11397,-0.15907 0.0744,-0.32913 0.34814,0.50294 0.18585,-0.15908 -0.0538,-0.21941 -0.28349,-0.14228 -0.078,-0.31814 0.0277,-0.0237 0.1222,0.0237 0.14991,0 0.0392,-0.0335 -0.003,-0.12554 0.0359,-0.15907 0.0277,-0.0237 0.12219,0.0237 0.14991,0 0.11919,-0.52758 -0.0876,0.075 0.18584,-0.15908 0.0392,-0.0335 -0.003,-0.12554 0.0359,-0.15907 0.0277,-0.0237 0.14144,0.0375 0.14991,0 0.008,-0.0375 -0.12251,-0.12158 -0.11397,-0.15907 0.017,-0.075 0.24438,0.0474 0.29982,0 0.0392,-0.0335 -0.003,-0.12554 0.0359,-0.15908 0.0554,-0.0474 0.28289,0.075 0.29982,0 0.008,-0.0375 -0.12251,-0.12158 -0.11397,-0.15907 0.01,-0.0435 0.54919,0.0431 0.59963,0 0.0392,-0.0335 -0.003,-0.12554 0.0359,-0.15908 0.0554,-0.0474 0.28288,0.075 0.29982,0 0.008,-0.0375 -0.12241,-0.12157 -0.11397,-0.15907 0.017,-0.075 0.28288,0.075 0.29982,0 0.008,-0.0375 -0.12251,-0.12158 -0.11397,-0.15907 0.017,-0.075 0.28288,0.075 0.29982,0 0.008,-0.0375 -0.12241,-0.12158 -0.11398,-0.15908 0.017,-0.075 0.28288,0.075 0.29981,0 0.009,-0.0375 -0.12241,-0.12158 -0.11397,-0.15907 0.018,-0.0795 0.43174,0.0795 0.44973,0 0.009,-0.0375 -0.12241,-0.12158 -0.11397,-0.15907 0.002,-0.006 0.54459,0 0.59964,0 0.52456,0 0.52495,-0.0188 1.0853,-0.15908 z"
       style="fill:#008000;fill-opacity:0.625;stroke:#000000;stroke-width:0.43238574px;stroke-linecap:butt;stroke-linejoin:miter;stroke-opacity:1;display:inline" />
  </g>
</svg>
